<svg width="428" height="670" viewBox="0 0 428 670" fill="none" xmlns="http://www.w3.org/2000/svg">
<path fill-rule="evenodd" clip-rule="evenodd" d="M403.619 1.06742C425.574 1.06742 424.237 7.97236 425.08 10.1644C427.948 17.6176 426.418 26.9658 426.418 39.5418C427.903 66.6781 428.076 570.356 427.977 583.429C427.878 596.502 427.231 608.53 426.418 615.089C425.461 622.809 425.926 636.932 426.591 648.679C427.186 659.211 419.041 668.259 408.493 668.291C348.331 668.471 166.429 669.059 114.369 669.741C59.7041 670.458 28.2567 669.51 25.411 669.024C16.0779 667.433 5.72028 666.799 5.52976 657.775C5.33924 648.751 5.52976 644.933 5.52976 631.098C5.52976 601.649 0.978511 104.158 0.399898 88.9938C-0.170902 74.0347 -0.0943019 59.611 0.3999 48.6838C0.399902 10.0293 8.71945 2.57433 12.8736 1.26124C14.3517 0.794011 15.7238 1.0674 17.274 1.0674C46.9816 1.0674 382.637 1.06742 403.619 1.06742Z" fill="#6ED8DD"/>
</svg>
