<svg width="1322" height="130" viewBox="0 0 1322 130" fill="none" xmlns="http://www.w3.org/2000/svg">
<path fill-rule="evenodd" clip-rule="evenodd" d="M1321.87 122.3C1321.87 128.952 1303.85 128.952 1299.52 129.208C1284.79 130.077 1267.03 128.61 1245.84 129.208C1195.48 130.629 196.905 129.71 171.072 129.68C145.239 129.65 121.47 129.454 108.508 129.208C88.2443 128.823 45.6522 129.198 21.3956 129.465C11.4849 129.574 3.34399 121.678 3.13196 111.769C2.62512 88.0719 1.63282 47.7684 0.511481 34.6548C-0.186273 26.4937 -0.0854422 20.0404 0.311043 15.4901C0.754402 10.4039 1.99989 3.72884 6.9878 2.63943C9.7179 2.04314 13.9171 1.69647 20.3734 1.67557C38.2059 1.61783 49.5342 1.67557 76.8731 1.67557C132.049 1.19738 1118.15 0.296622 1148.12 0.121302C1177.68 -0.0516529 1206.18 -0.0284409 1227.77 0.121311C1277.64 0.121317 1301.23 1.1958 1312.32 2.29204C1318.7 2.92284 1321.87 8.54108 1321.87 14.954C1321.87 42.6848 1321.87 116.899 1321.87 122.3Z" fill="#187a7d"/>
</svg>
