<svg width="1355" height="972" viewBox="0 0 1355 972" fill="none" xmlns="http://www.w3.org/2000/svg">
<g filter="url(#filter0_d)">
<path fill-rule="evenodd" clip-rule="evenodd" d="M18.3221 59.5882C24.9957 -1.6149 113.721 17.322 306.289 10.5431C498.857 3.76429 601.569 6.53877 700.361 6.68218C748.546 6.75213 891.539 12.6416 936.476 13.4701C981.413 14.2986 1048.57 15.6007 1135.56 14.4737C1172.4 13.9965 1277.43 9.47666 1321.05 7.54776C1331.51 7.08509 1340.15 15.5895 1339.85 26.0594C1338.87 60.7477 1336.94 132.203 1336.94 157.623C1336.94 358.008 1343.31 801.782 1343.31 843.524C1343.31 864.486 1348.62 899.935 1340.41 918.812C1323.63 957.422 1268.85 943.444 1079.34 947.591C889.834 951.738 795.04 956.586 680.445 957.422C567.398 958.247 463.996 958.136 381.417 957.422C131.985 955.264 98.5409 956.232 50.7869 947.591C3.03292 938.951 10.4112 880.614 10.4112 880.614C10.4112 880.614 18.6574 426.155 18.3221 350.631C17.9869 275.106 19.2149 353.867 18.3221 246.778C17.4294 139.689 15.7266 83.3921 18.3221 59.5882Z" fill="#69D8E4"/>
<path fill-rule="evenodd" clip-rule="evenodd" d="M33.4404 53.2778C33.4404 22.9485 80.0231 22.9485 96.1498 21.7832C150.983 17.8211 237.587 24.5102 316.497 21.7832C503.965 15.3046 601.246 19.4915 697.422 19.6286C793.599 19.7657 882.09 20.6601 930.347 21.7832C1022.69 23.9323 1239.56 20.8875 1303.38 19.9119C1313.33 19.7597 1321.45 27.71 1321.6 37.665L1332.42 784.209C1332.42 784.209 1332.42 840.038 1327.64 901.011C1327.33 904.96 1325.72 908.701 1323.16 911.725C1313.46 923.191 1302.9 934.332 1244.39 934.564C1178 934.827 1148.87 934.564 1048.13 934.564C947.386 934.564 791.876 940.851 680.316 941.65C570.262 942.439 464.147 942.333 383.755 941.65C192.796 940.029 85.5343 928.334 48.4244 923.411C39.7283 922.258 33.4404 915.341 33.4404 906.569C33.4404 794.793 33.4404 81.2281 33.4404 53.2778Z" fill="#157A7E" fill-opacity="0.53"/>
<path opacity="0.526507" fill-rule="evenodd" clip-rule="evenodd" d="M300.524 546.793C296.826 531.799 291.516 581.487 315.735 588.074C339.953 594.661 366.088 588.074 366.088 588.074C366.088 588.074 304.223 561.786 300.524 546.793Z" fill="#24808F"/>
<path opacity="0.526507" fill-rule="evenodd" clip-rule="evenodd" d="M1107.95 546.793C1113.4 531.799 1121.23 581.487 1085.53 588.074C1049.84 594.661 1011.32 588.074 1011.32 588.074C1011.32 588.074 1102.5 561.786 1107.95 546.793Z" fill="#24808F"/>
<g filter="url(#filter1_di)">
<path fill-rule="evenodd" clip-rule="evenodd" d="M45.6842 46.5105C45.9268 36.7552 53.8822 29.4419 63.6404 29.3926C98.0837 29.2188 182.33 28.5276 307.764 25.7796C493.745 16.0366 577.411 24.1112 672.824 24.3173C719.361 24.4178 923.385 27.762 971.259 29.451C1060.89 32.6134 1236.11 28.0008 1293.19 26.3379C1303.35 26.0419 1311.64 33.8566 1311.64 44.0248C1311.64 167.417 1311.64 875.717 1311.64 902.511C1311.64 931.866 1047.28 918.758 1047.28 918.758C1047.28 918.758 783.499 929.055 672.824 930.257C563.643 931.443 465.203 931.284 385.449 930.257C144.548 927.156 68.6695 922.049 46.1159 908.129C25.4438 895.371 42.6667 167.815 45.6842 46.5105Z" fill="#7BCBD5"/>
</g>
<path opacity="0.526507" fill-rule="evenodd" clip-rule="evenodd" d="M27.477 903.661C23.7786 888.667 19.1341 926.432 43.3526 933.018C67.571 939.605 65.7223 933.018 65.7223 933.018C65.7223 933.018 31.1754 918.655 27.477 903.661Z" fill="white"/>
<path opacity="0.526507" fill-rule="evenodd" clip-rule="evenodd" d="M1330.01 903.661C1333.71 888.667 1338.35 926.432 1314.13 933.018C1289.91 939.605 1291.76 933.018 1291.76 933.018C1291.76 933.018 1326.31 918.655 1330.01 903.661Z" fill="white"/>
</g>
<defs>
<filter id="filter0_d" x="0" y="0" width="1355" height="972" filterUnits="userSpaceOnUse" color-interpolation-filters="sRGB">
<feFlood flood-opacity="0" result="BackgroundImageFix"/>
<feColorMatrix in="SourceAlpha" type="matrix" values="0 0 0 0 0 0 0 0 0 0 0 0 0 0 0 0 0 0 127 0"/>
<feOffset dy="4"/>
<feGaussianBlur stdDeviation="5"/>
<feColorMatrix type="matrix" values="0 0 0 0 0 0 0 0 0 0 0 0 0 0 0 0 0 0 0.25 0"/>
<feBlend mode="normal" in2="BackgroundImageFix" result="effect1_dropShadow"/>
<feBlend mode="normal" in="SourceGraphic" in2="effect1_dropShadow" result="shape"/>
</filter>
<filter id="filter1_di" x="26.092" y="12.981" width="1295.55" height="930.107" filterUnits="userSpaceOnUse" color-interpolation-filters="sRGB">
<feFlood flood-opacity="0" result="BackgroundImageFix"/>
<feColorMatrix in="SourceAlpha" type="matrix" values="0 0 0 0 0 0 0 0 0 0 0 0 0 0 0 0 0 0 127 0"/>
<feOffset dy="2"/>
<feGaussianBlur stdDeviation="5"/>
<feColorMatrix type="matrix" values="0 0 0 0 0.0313725 0 0 0 0 0.392157 0 0 0 0 0.509804 0 0 0 0.69 0"/>
<feBlend mode="normal" in2="BackgroundImageFix" result="effect1_dropShadow"/>
<feBlend mode="normal" in="SourceGraphic" in2="effect1_dropShadow" result="shape"/>
<feColorMatrix in="SourceAlpha" type="matrix" values="0 0 0 0 0 0 0 0 0 0 0 0 0 0 0 0 0 0 127 0" result="hardAlpha"/>
<feOffset dy="4"/>
<feComposite in2="hardAlpha" operator="arithmetic" k2="-1" k3="1"/>
<feColorMatrix type="matrix" values="0 0 0 0 1 0 0 0 0 1 0 0 0 0 1 0 0 0 0.302649 0"/>
<feBlend mode="normal" in2="shape" result="effect2_innerShadow"/>
</filter>
</defs>
</svg>
