<svg width="1320" height="755" viewBox="0 0 1320 755" fill="none" xmlns="http://www.w3.org/2000/svg">
<path fill-rule="evenodd" clip-rule="evenodd" d="M1.13293 43.0084C1.13293 4.27945 14.7467 6.63869 19.0685 5.15072C33.7633 0.0913634 52.1941 2.79147 76.989 2.79147C130.491 0.171645 1123.54 -0.134833 1149.32 0.0401894C1175.09 0.215212 1198.81 1.35729 1211.74 2.79147C1231.55 4.98833 1272.74 2.93499 1297.16 1.3893C1307.62 0.727317 1316.55 8.96534 1316.58 19.4449C1316.86 105.969 1318.07 456.561 1319.49 553.25C1320.9 649.681 1319.03 705.155 1318.08 710.174C1314.94 726.638 1313.69 744.909 1295.9 745.245C1278.11 745.582 1270.58 745.245 1243.3 745.245C1185.24 745.245 204.385 753.274 174.489 754.294C144.995 755.301 45.0442 755.166 23.5 754.294C-4.18019 754.294 -0.0406771 709.273 0.961339 700.949C1.06729 700.068 1.13293 699.515 1.13293 698.628C1.13293 670.956 1.13293 80.8286 1.13293 43.0084Z" fill="white" fill-opacity="0.32"/>
</svg>
