<svg width="162" height="55" viewBox="0 0 162 55" fill="none" xmlns="http://www.w3.org/2000/svg">
<path fill-rule="evenodd" clip-rule="evenodd" d="M20.2557 3.43147C11.6284 4.75983 1.60769 10.7644 0.128464 25.6563C-1.35076 40.5481 10.2282 49.8948 20.2557 51.9812C30.2831 54.0676 35.421 54.5858 63.3484 54.9258C75.8086 55.0775 91.8907 54.9542 101.733 54.9258C113.951 54.8905 129.127 53.5896 134.803 53.0819C147.105 51.9812 158.738 45.4177 161.081 35.7184C163.425 26.0191 161.081 19.7179 156.348 12.6837C151.615 5.64949 138.637 2.6163 127.1 1.86158C115.563 1.10685 102.117 0.192312 98.8988 0.192312C95.6801 0.192312 64.3975 -0.24039 50.1495 0.192312C35.9016 0.625014 28.8829 2.10311 20.2557 3.43147Z" fill="white"/>
<g filter="url(#filter0_i)">
<path fill-rule="evenodd" clip-rule="evenodd" d="M24.176 8.4144C16.1684 9.51174 6.86734 14.4721 5.49436 26.774C4.12137 39.076 14.8687 46.7972 24.176 48.5207C33.4832 50.2443 38.2521 50.6723 64.1736 50.9532C75.739 51.0785 90.6659 50.9767 99.8016 50.9532C111.142 50.924 125.228 49.8494 130.496 49.43C141.915 48.5207 152.712 43.0987 154.887 35.0862C157.063 27.0737 154.887 21.8684 150.494 16.0576C146.1 10.2467 134.055 7.74101 123.346 7.11754C112.638 6.49407 100.158 5.73858 97.1707 5.73858C94.1832 5.73858 65.1474 5.38113 51.9228 5.73858C38.6981 6.09603 32.1836 7.31706 24.176 8.4144Z" fill="url(#paint0_linear)"/>
</g>
<mask id="mask0" mask-type="alpha" maskUnits="userSpaceOnUse" x="5" y="5" width="151" height="47">
<path fill-rule="evenodd" clip-rule="evenodd" d="M24.176 8.4144C16.1684 9.51174 6.86734 14.4721 5.49436 26.774C4.12137 39.076 14.8687 46.7972 24.176 48.5207C33.4832 50.2443 38.2521 50.6723 64.1736 50.9532C75.739 51.0785 90.6659 50.9767 99.8016 50.9532C111.142 50.924 125.228 49.8494 130.496 49.43C141.915 48.5207 152.712 43.0987 154.887 35.0862C157.063 27.0737 154.887 21.8684 150.494 16.0576C146.1 10.2467 134.055 7.74101 123.346 7.11754C112.638 6.49407 100.158 5.73858 97.1707 5.73858C94.1832 5.73858 65.1474 5.38113 51.9228 5.73858C38.6981 6.09603 32.1836 7.31706 24.176 8.4144Z" fill="white"/>
</mask>
<g mask="url(#mask0)">
<path fill-rule="evenodd" clip-rule="evenodd" d="M4.4801 22.3188C4.4801 22.3188 7.21181 11.0906 16.4329 8.42579C25.654 5.76095 30.2839 5.63003 39.1123 4.80775C47.9407 3.98547 79.0516 3.98547 83.6349 3.98547C88.2182 3.98547 121.529 4.96261 125.172 5.47957C128.815 5.99654 138.004 6.62511 144.865 10.3027C151.727 13.9803 153.055 19.7633 153.055 19.7633C153.055 19.7633 144.582 14.4089 137.313 12.366C130.045 10.3232 113.776 10.8964 108.954 10.8964C104.133 10.8964 88.0899 10.8964 73.7009 10.8964C59.312 10.8964 50.1351 10.3027 42.7451 10.3027C35.3551 10.3027 25.7978 12.1398 21.0192 12.9879C16.2407 13.836 4.4801 22.3188 4.4801 22.3188Z" fill="white" fill-opacity="0.436113"/>
<path fill-rule="evenodd" clip-rule="evenodd" d="M155.74 29.4928C155.74 29.4928 153.501 40.6751 142.538 46.0815C131.575 51.4879 129.562 49.7422 120.833 49.7422C112.103 49.7422 115.52 51.0145 105.823 51.0145C96.1252 51.0145 79.878 51.0145 75.2919 51.0145C70.7059 51.0145 56.5206 50.3281 51.1383 50.3281C45.756 50.3281 36.6658 49.0093 33.6244 49.0093C30.583 49.0093 20.6265 47.7501 13.7612 43.8545C6.89589 39.959 5.37509 30.4604 5.37509 30.4604C5.37509 30.4604 14.4612 35.8356 21.734 37.9995C29.0067 40.1634 44.7822 39.7616 49.6067 39.7616C54.4311 39.7616 70.7808 39.203 85.1784 39.203C99.576 39.203 109.878 39.203 117.272 39.203C124.667 39.203 134.133 37.8801 138.915 36.9818C143.696 36.0834 155.74 29.4928 155.74 29.4928Z" fill="#8B072A" fill-opacity="0.243235"/>
<path opacity="0.84854" fill-rule="evenodd" clip-rule="evenodd" d="M145.059 16.5418C146.719 17.2756 147.032 18.3327 148.338 18.0796C149.644 17.8265 148.561 15.9685 147.435 15.0268C146.309 14.0851 144.45 13.5905 142.506 13.2005C140.563 12.8106 140.327 14.1213 140.327 14.1213C140.327 14.1213 140.7 14.7181 142.123 15.3331C143.547 15.948 143.398 15.8079 145.059 16.5418Z" fill="white"/>
<path opacity="0.668457" fill-rule="evenodd" clip-rule="evenodd" d="M14.9185 39.5693C13.596 39.7399 14.7254 41.2315 15.7751 42.2413C16.8249 43.2511 16.6274 43.0643 18.5358 43.5751C20.4443 44.0858 20.781 42.7933 20.781 42.7933C20.781 42.7933 20.4558 42.1747 19.0836 41.4721C17.7115 40.7696 16.2411 39.3987 14.9185 39.5693Z" fill="white"/>
<path opacity="0.84854" fill-rule="evenodd" clip-rule="evenodd" d="M135.589 11.6152C135.589 11.6152 134.78 11.4673 134.555 11.8929C134.331 12.3185 134.276 12.6396 134.901 12.7339C135.526 12.8281 135.883 12.9638 136.358 13.0354C136.833 13.1071 136.891 12.8136 136.891 12.8136C136.891 12.8136 136.922 12.338 136.611 12.0517C136.3 11.7653 135.589 11.6152 135.589 11.6152Z" fill="white"/>
</g>
<defs>
<filter id="filter0_i" x="5.37512" y="5.57971" width="150.365" height="45.4348" filterUnits="userSpaceOnUse" color-interpolation-filters="sRGB">
<feFlood flood-opacity="0" result="BackgroundImageFix"/>
<feBlend mode="normal" in="SourceGraphic" in2="BackgroundImageFix" result="shape"/>
<feColorMatrix in="SourceAlpha" type="matrix" values="0 0 0 0 0 0 0 0 0 0 0 0 0 0 0 0 0 0 127 0" result="hardAlpha"/>
<feOffset dy="-2"/>
<feComposite in2="hardAlpha" operator="arithmetic" k2="-1" k3="1"/>
<feColorMatrix type="matrix" values="0 0 0 0 0.369739 0 0 0 0 0.00588658 0 0 0 0 0.131393 0 0 0 0.602497 0"/>
<feBlend mode="normal" in2="shape" result="effect1_innerShadow"/>
</filter>
<linearGradient id="paint0_linear" x1="5.37512" y1="5.57971" x2="5.37512" y2="51.0145" gradientUnits="userSpaceOnUse">
<stop stop-color="#FF476D"/>
<stop offset="0.97803" stop-color="#D01138"/>
</linearGradient>
</defs>
</svg>
    