<svg width="263" height="62" viewBox="0 0 263 62" fill="none" xmlns="http://www.w3.org/2000/svg" preserveAspectRatio="none" >
<g>
<g filter="url(#filter0_d)">
<path fill-rule="evenodd" clip-rule="evenodd" d="M32.8842 3.8682C18.8783 5.36562 2.61002 12.1344 0.208555 28.9216C-2.19291 45.7088 16.6051 56.2451 32.8842 58.597C49.1633 60.949 57.5045 61.533 102.843 61.9164C123.072 62.0874 149.181 61.9484 165.16 61.9164C184.995 61.8766 209.633 60.4101 218.847 59.8377C238.819 58.597 257.704 51.1982 261.509 40.2644C265.314 29.3306 261.509 22.2275 253.824 14.298C246.14 6.36851 225.071 2.94929 206.341 2.09851C187.612 1.24773 165.783 0.216788 160.558 0.216788C155.332 0.216788 104.547 -0.270985 81.4156 0.216788C58.2846 0.704561 46.8902 2.37077 32.8842 3.8682Z" fill="white"/>
</g>
<g filter="url(#filter1_di)">
<path fill-rule="evenodd" clip-rule="evenodd" d="M40.6935 8.5867C27.6935 9.82371 12.5937 15.4153 10.3647 29.283C8.13574 43.1506 25.5836 51.8546 40.6935 53.7975C55.8034 55.7404 63.5455 56.2229 105.628 56.5395C124.404 56.6808 148.637 56.566 163.468 56.5395C181.879 56.5067 204.748 55.2952 213.299 54.8224C231.837 53.7975 249.366 47.6854 252.898 38.6531C256.429 29.6208 252.898 23.7531 245.765 17.2026C238.633 10.6522 219.077 7.8276 201.692 7.12479C184.308 6.42197 164.047 5.57032 159.197 5.57032C154.347 5.57032 107.209 5.16738 85.7392 5.57032C64.2696 5.97326 53.6935 7.3497 40.6935 8.5867Z" fill="url(#paint0_linear)"/>
</g>
<mask id="mask0" mask-type="alpha" maskUnits="userSpaceOnUse" x="10" y="5" width="245" height="52">
<path fill-rule="evenodd" clip-rule="evenodd" d="M40.6935 8.5867C27.6935 9.82371 12.5937 15.4153 10.3647 29.283C8.13574 43.1506 25.5836 51.8546 40.6935 53.7975C55.8034 55.7404 63.5455 56.2229 105.628 56.5395C124.404 56.6808 148.637 56.566 163.468 56.5395C181.879 56.5067 204.748 55.2952 213.299 54.8224C231.837 53.7975 249.366 47.6854 252.898 38.6531C256.429 29.6208 252.898 23.7531 245.765 17.2026C238.633 10.6522 219.077 7.8276 201.692 7.12479C184.308 6.42197 164.047 5.57032 159.197 5.57032C154.347 5.57032 107.209 5.16738 85.7392 5.57032C64.2696 5.97326 53.6935 7.3497 40.6935 8.5867Z" fill="white"/>
</mask>
<g mask="url(#mask0)">
<path fill-rule="evenodd" clip-rule="evenodd" d="M8.71826 24.2609C8.71826 24.2609 13.1531 11.6037 28.1231 8.59969C43.0932 5.59568 50.6096 5.4481 64.9421 4.52117C79.2746 3.59424 129.782 3.59424 137.223 3.59424C144.663 3.59424 198.742 4.69574 204.656 5.27849C210.57 5.86125 225.489 6.56983 236.628 10.7155C247.767 14.8611 249.923 21.3801 249.923 21.3801C249.923 21.3801 236.167 15.3442 224.367 13.0414C212.567 10.7386 186.155 11.3847 178.327 11.3847C170.5 11.3847 144.455 11.3847 121.095 11.3847C97.7355 11.3847 82.8372 10.7155 70.8399 10.7155C58.8425 10.7155 43.3266 12.7864 35.5688 13.7424C27.811 14.6985 8.71826 24.2609 8.71826 24.2609Z" fill="white" fill-opacity="0.436113"/>
<path fill-rule="evenodd" clip-rule="evenodd" d="M254.282 32.3479C254.282 32.3479 250.647 44.9534 232.849 51.0479C215.051 57.1424 211.784 55.1745 197.612 55.1745C183.44 55.1745 188.987 56.6088 173.244 56.6088C157.5 56.6088 131.124 56.6088 123.678 56.6088C116.233 56.6088 93.204 55.835 84.466 55.835C75.7281 55.835 60.9707 54.3483 56.0331 54.3483C51.0955 54.3483 34.9314 52.9288 23.7859 48.5375C12.6404 44.1461 10.1715 33.4387 10.1715 33.4387C10.1715 33.4387 24.9224 39.4979 36.7294 41.9372C48.5364 44.3765 74.1472 43.9237 81.9795 43.9237C89.8118 43.9237 116.355 43.294 139.729 43.294C163.103 43.294 179.827 43.294 191.832 43.294C203.836 43.294 219.205 41.8027 226.967 40.79C234.73 39.7773 254.282 32.3479 254.282 32.3479Z" fill="#D26114" fill-opacity="0.433481"/>
<path opacity="0.84854" fill-rule="evenodd" clip-rule="evenodd" d="M236.942 17.7485C239.637 18.5758 240.145 19.7674 242.265 19.4821C244.386 19.1968 242.627 17.1023 240.799 16.0407C238.972 14.9791 235.953 14.4217 232.798 13.9821C229.643 13.5424 229.26 15.0199 229.26 15.0199C229.26 15.0199 229.865 15.6927 232.176 16.386C234.487 17.0792 234.246 16.9212 236.942 17.7485Z" fill="white"/>
<path opacity="0.668457" fill-rule="evenodd" clip-rule="evenodd" d="M25.6647 43.7069C23.5176 43.8992 25.3512 45.5807 27.0554 46.719C28.7595 47.8572 28.439 47.6467 31.5373 48.2225C34.6355 48.7982 35.1821 47.3412 35.1821 47.3412C35.1821 47.3412 34.6543 46.6438 32.4266 45.8519C30.1989 45.0599 27.8118 43.5146 25.6647 43.7069Z" fill="white"/>
<path opacity="0.84854" fill-rule="evenodd" clip-rule="evenodd" d="M221.567 12.1949C221.567 12.1949 220.254 12.0282 219.89 12.5079C219.525 12.9877 219.436 13.3497 220.451 13.456C221.465 13.5622 222.044 13.7152 222.816 13.7959C223.587 13.8767 223.682 13.5459 223.682 13.5459C223.682 13.5459 223.732 13.0097 223.227 12.6869C222.721 12.3642 221.567 12.1949 221.567 12.1949Z" fill="white"/>
</g>
</g>
<defs>
<filter id="filter0_d" x="0" y="0" width="263" height="64" filterUnits="userSpaceOnUse" color-interpolation-filters="sRGB">
<feFlood flood-opacity="0" result="BackgroundImageFix"/>
<feColorMatrix in="SourceAlpha" type="matrix" values="0 0 0 0 0 0 0 0 0 0 0 0 0 0 0 0 0 0 127 0"/>
<feOffset dy="2"/>
<feColorMatrix type="matrix" values="0 0 0 0 0.0117647 0 0 0 0 0.439216 0 0 0 0 0.494118 0 0 0 0.337806 0"/>
<feBlend mode="normal" in2="BackgroundImageFix" result="effect1_dropShadow"/>
<feBlend mode="normal" in="SourceGraphic" in2="effect1_dropShadow" result="shape"/>
</filter>
<filter id="filter1_di" x="0.171143" y="4.39124" width="256.11" height="63.2174" filterUnits="userSpaceOnUse" color-interpolation-filters="sRGB">
<feFlood flood-opacity="0" result="BackgroundImageFix"/>
<feColorMatrix in="SourceAlpha" type="matrix" values="0 0 0 0 0 0 0 0 0 0 0 0 0 0 0 0 0 0 127 0"/>
<feOffset dx="-4" dy="5"/>
<feGaussianBlur stdDeviation="3"/>
<feColorMatrix type="matrix" values="0 0 0 0 0.687048 0 0 0 0 0.527877 0 0 0 0 0.138554 0 0 0 0.46139 0"/>
<feBlend mode="normal" in2="BackgroundImageFix" result="effect1_dropShadow"/>
<feBlend mode="normal" in="SourceGraphic" in2="effect1_dropShadow" result="shape"/>
<feColorMatrix in="SourceAlpha" type="matrix" values="0 0 0 0 0 0 0 0 0 0 0 0 0 0 0 0 0 0 127 0" result="hardAlpha"/>
<feOffset dy="-2"/>
<feComposite in2="hardAlpha" operator="arithmetic" k2="-1" k3="1"/>
<feColorMatrix type="matrix" values="0 0 0 0 0.416268 0 0 0 0 0.278893 0 0 0 0 0.0201531 0 0 0 0.602497 0"/>
<feBlend mode="normal" in2="shape" result="effect2_innerShadow"/>
</filter>
<linearGradient id="paint0_linear" x1="16.1669" y1="7.63312" x2="16.1669" y2="56.3346" gradientUnits="userSpaceOnUse">
<stop stop-color="#FFD800"/>
<stop offset="0.547936" stop-color="#FFB500"/>
<stop offset="1" stop-color="#E79822"/>
</linearGradient>
<clipPath id="clip0">
<rect width="263" height="62" fill="white"/>
</clipPath>
</defs>
</svg>
