<svg width="162" height="55" viewBox="0 0 162 55" fill="none" xmlns="http://www.w3.org/2000/svg">
<path fill-rule="evenodd" clip-rule="evenodd" d="M20.2557 3.43147C11.6284 4.75983 1.60769 10.7644 0.128464 25.6563C-1.35076 40.5481 10.2282 49.8948 20.2557 51.9812C30.2831 54.0676 35.421 54.5858 63.3484 54.9258C75.8086 55.0775 91.8907 54.9542 101.733 54.9258C113.951 54.8905 129.127 53.5896 134.803 53.0819C147.105 51.9812 158.738 45.4177 161.081 35.7184C163.425 26.0191 161.081 19.7179 156.348 12.6837C151.615 5.64949 138.637 2.6163 127.1 1.86158C115.563 1.10685 102.117 0.192312 98.8988 0.192312C95.6801 0.192312 64.3975 -0.24039 50.1495 0.192312C35.9016 0.625014 28.8829 2.10311 20.2557 3.43147Z" fill="white"/>
<g filter="url(#filter0_i)">
<path fill-rule="evenodd" clip-rule="evenodd" d="M24.176 8.4144C16.1684 9.51174 6.86734 14.4721 5.49436 26.774C4.12137 39.076 14.8687 46.7972 24.176 48.5207C33.4832 50.2443 38.2521 50.6723 64.1736 50.9532C75.739 51.0785 90.6659 50.9767 99.8016 50.9532C111.142 50.924 125.228 49.8494 130.496 49.43C141.915 48.5207 152.712 43.0987 154.887 35.0862C157.063 27.0737 154.887 21.8684 150.494 16.0576C146.1 10.2467 134.055 7.74101 123.346 7.11754C112.638 6.49407 100.158 5.73858 97.1707 5.73858C94.1832 5.73858 65.1474 5.38113 51.9228 5.73858C38.6981 6.09603 32.1836 7.31706 24.176 8.4144Z" fill="url(#paint0_linear)"/>
</g>
<mask id="mask0" mask-type="alpha" maskUnits="userSpaceOnUse" x="5" y="5" width="151" height="47">
<path fill-rule="evenodd" clip-rule="evenodd" d="M24.176 8.4144C16.1684 9.51174 6.86734 14.4721 5.49436 26.774C4.12137 39.076 14.8687 46.7972 24.176 48.5207C33.4832 50.2443 38.2521 50.6723 64.1736 50.9532C75.739 51.0785 90.6659 50.9767 99.8016 50.9532C111.142 50.924 125.228 49.8494 130.496 49.43C141.915 48.5207 152.712 43.0987 154.887 35.0862C157.063 27.0737 154.887 21.8684 150.494 16.0576C146.1 10.2467 134.055 7.74101 123.346 7.11754C112.638 6.49407 100.158 5.73858 97.1707 5.73858C94.1832 5.73858 65.1474 5.38113 51.9228 5.73858C38.6981 6.09603 32.1836 7.31706 24.176 8.4144Z" fill="white"/>
</mask>
<g mask="url(#mask0)">
<path fill-rule="evenodd" clip-rule="evenodd" d="M4.4801 22.3188C4.4801 22.3188 7.21181 11.0906 16.4329 8.42579C25.654 5.76095 30.2839 5.63003 39.1123 4.80775C47.9407 3.98547 79.0516 3.98547 83.6349 3.98547C88.2182 3.98547 121.529 4.96261 125.172 5.47957C128.815 5.99654 138.004 6.62511 144.865 10.3027C151.727 13.9803 153.055 19.7633 153.055 19.7633C153.055 19.7633 144.582 14.4089 137.313 12.366C130.045 10.3232 113.776 10.8964 108.954 10.8964C104.133 10.8964 88.0899 10.8964 73.7009 10.8964C59.312 10.8964 50.1351 10.3027 42.7451 10.3027C35.3551 10.3027 25.7978 12.1398 21.0192 12.9879C16.2407 13.836 4.4801 22.3188 4.4801 22.3188Z" fill="white" fill-opacity="0.436113"/>
<path fill-rule="evenodd" clip-rule="evenodd" d="M155.74 29.4928C155.74 29.4928 153.501 40.6751 142.538 46.0815C131.575 51.4879 129.562 49.7422 120.833 49.7422C112.103 49.7422 115.52 51.0145 105.823 51.0145C96.1252 51.0145 79.878 51.0145 75.2919 51.0145C70.7059 51.0145 56.5206 50.3281 51.1383 50.3281C45.756 50.3281 36.6658 49.0093 33.6244 49.0093C30.583 49.0093 20.6265 47.7501 13.7612 43.8545C6.89589 39.959 5.37509 30.4604 5.37509 30.4604C5.37509 30.4604 14.4612 35.8356 21.734 37.9995C29.0067 40.1634 44.7822 39.7616 49.6067 39.7616C54.4311 39.7616 70.7808 39.203 85.1784 39.203C99.576 39.203 109.878 39.203 117.272 39.203C124.667 39.203 134.133 37.8801 138.915 36.9818C143.696 36.0834 155.74 29.4928 155.74 29.4928Z" fill="#8B072A" fill-opacity="0.243235"/>
<path opacity="0.84854" fill-rule="evenodd" clip-rule="evenodd" d="M145.059 16.5418C146.719 17.2756 147.032 18.3327 148.338 18.0796C149.644 17.8265 148.561 15.9685 147.435 15.0268C146.309 14.0851 144.45 13.5905 142.506 13.2005C140.563 12.8106 140.327 14.1213 140.327 14.1213C140.327 14.1213 140.7 14.7181 142.123 15.3331C143.547 15.948 143.398 15.8079 145.059 16.5418Z" fill="white"/>
<path opacity="0.668457" fill-rule="evenodd" clip-rule="evenodd" d="M14.9185 39.5693C13.596 39.7399 14.7254 41.2315 15.7751 42.2413C16.8249 43.2511 16.6274 43.0643 18.5358 43.5751C20.4443 44.0858 20.781 42.7933 20.781 42.7933C20.781 42.7933 20.4558 42.1747 19.0836 41.4721C17.7115 40.7696 16.2411 39.3987 14.9185 39.5693Z" fill="white"/>
<path opacity="0.84854" fill-rule="evenodd" clip-rule="evenodd" d="M135.589 11.6152C135.589 11.6152 134.78 11.4673 134.555 11.8929C134.331 12.3185 134.276 12.6396 134.901 12.7339C135.526 12.8281 135.883 12.9638 136.358 13.0354C136.833 13.1071 136.891 12.8136 136.891 12.8136C136.891 12.8136 136.922 12.338 136.611 12.0517C136.3 11.7653 135.589 11.6152 135.589 11.6152Z" fill="white"/>
<g filter="url(#filter1_dd)">
<path d="M44.8672 38.4786C45.3242 38.4786 45.6289 38.5294 45.6797 38.5294C45.7305 38.5294 45.7559 38.4786 45.7559 38.3771V34.2384V32.3595C46.9492 33.3497 49.4121 35.254 53.1953 38.047C53.4746 38.2501 54.0586 38.8341 54.4648 38.8341C54.7949 38.7072 55.125 38.2755 55.4551 37.5392C55.582 37.2853 55.8867 36.7521 55.8867 36.5743C55.8867 36.4982 55.8613 36.422 55.8359 36.3966C55.6074 36.1681 55.1758 35.7618 54.5664 35.2286C53.957 34.6954 53.5508 34.3654 53.3477 34.2384L51.1133 32.3849C50.1484 31.547 49.4375 30.963 49.0059 30.6583C50.6055 29.0079 52.1797 27.2306 53.7285 25.3517C53.7539 25.3009 53.957 25.047 54.3379 24.6154C54.7188 24.1837 55.0742 23.7521 55.4043 23.3204C55.7598 22.8888 55.9375 22.6349 55.9375 22.5587C55.9375 22.4825 55.1504 22.1525 53.5508 21.5177C53.4746 21.4415 53.4238 21.4161 53.3477 21.4161C53.1953 21.4161 52.9414 21.6447 52.6113 22.0763C51.5957 23.1173 49.8438 25.0216 47.3555 27.84C46.7715 28.424 46.2383 28.881 45.7559 29.2111V25.7579C45.7559 25.3263 45.7305 24.2091 45.7305 23.7775C45.7305 22.9904 45.7559 22.2794 45.832 21.6447C45.8828 21.2892 45.8574 21.0607 45.7559 20.9591C45.6797 20.8829 45.4258 20.8068 44.9688 20.7306C44.5371 20.6544 44.1309 20.6036 43.8008 20.6036C43.5215 20.6036 43.3691 20.629 43.293 20.7052C43.2168 20.8829 43.0645 22.6349 42.8359 25.9357C42.7852 26.6212 42.709 27.6876 42.6328 29.1095L42.4551 32.3087C42.4297 32.7404 42.4043 33.4005 42.4043 34.2638V35.3556C42.4043 35.5841 42.3789 36.1935 42.3789 36.422C42.3789 37.59 42.3789 38.174 42.3789 38.174C42.3789 38.3771 42.8105 38.4786 43.6484 38.4786C44.0039 38.4786 44.1816 38.4786 44.1816 38.4786C44.6387 38.4786 44.8672 38.4786 44.8672 38.4786ZM60.9308 19.5372C60.9562 20.0958 61.2609 20.4005 61.8448 20.4513C62.5558 20.3751 62.9113 19.9435 62.9113 19.1818C62.9113 19.1564 62.8859 18.9532 62.8859 18.9279C62.7081 18.4454 62.378 18.2169 61.8702 18.2169C61.6925 18.2169 61.5402 18.2677 61.3878 18.3439C61.1593 18.4962 61.007 18.9025 60.9308 19.5372ZM65.2218 18.1915C64.7394 18.1915 64.2062 18.5978 64.13 19.004C64.1046 19.1818 64.0792 19.3087 64.0792 19.3849C64.0792 20.1466 64.4601 20.5529 65.1964 20.6036H65.2218C65.8312 20.6036 66.2628 20.1212 66.3644 19.588C66.3898 19.5118 66.3898 19.4103 66.3898 19.2833C66.3898 18.5978 65.9327 18.1915 65.2218 18.1915ZM60.9562 27.0782V25.7325C60.9816 25.1232 60.9816 24.7423 60.9816 24.5646C60.9816 24.3361 60.9816 23.8536 61.007 23.0665C61.0323 22.2794 61.0323 21.8478 61.0323 21.7462C61.0323 21.3907 60.753 21.2892 60.3722 21.2892C60.296 21.2638 60.1437 21.2638 59.9152 21.2638C59.839 21.2638 59.6359 21.2384 59.5343 21.2384C58.9757 21.1876 58.5695 21.1622 58.3155 21.1622C58.0363 21.1622 57.8839 21.1876 57.8839 21.2638V21.5685C57.8839 22.2286 57.8585 23.2189 57.8331 24.5646C57.8077 25.8849 57.7823 26.8751 57.7823 27.5353C57.7823 30.6583 58.087 33.0704 58.6964 34.7208C59.5851 37.1583 61.1847 38.3771 63.4698 38.3771H63.9015C66.6691 38.1993 68.2433 36.1173 68.6241 33.045C68.7257 32.3087 68.7511 31.1154 68.7511 29.7189C68.7765 29.0079 68.7765 28.5001 68.8019 28.2208C68.8273 27.8146 68.8273 27.2052 68.8273 26.3927C68.8273 25.9611 68.8273 25.3263 68.8019 24.4884V22.6095V21.8478C68.6749 21.7462 68.1671 21.5685 67.253 21.34C66.7198 21.213 66.2882 21.1115 66.212 21.1115C66.0851 21.1115 66.0343 21.2384 66.0343 21.4669C66.0343 21.8986 66.0089 23.1681 65.9835 25.2501C65.9581 27.3322 65.9581 28.6271 65.9581 29.1095C65.9581 29.1349 65.9835 29.2872 65.9835 29.3126C65.9835 33.3751 65.2472 35.2286 63.5968 35.2286C61.8956 35.2286 61.3116 32.8673 61.007 28.424C60.9816 28.0177 60.9562 27.713 60.9562 27.4845V27.0782ZM74.2522 21.4161C74.2522 21.2892 73.9983 21.213 73.4905 21.213H73.0334H72.9065L71.5354 21.1876C71.4592 21.1876 71.4338 21.797 71.4338 23.0411V23.4982V23.7267C71.4338 23.9298 71.4592 24.3868 71.4592 24.5646V25.2755C71.4592 25.7072 71.4846 26.672 71.4846 27.0529C71.4846 27.4591 71.4846 28.0685 71.4592 28.8556V30.6837C71.4592 31.0138 71.4846 31.9025 71.4846 32.2833C71.4846 32.6388 71.4846 33.1466 71.51 33.8322C71.5354 34.4923 71.5608 35.0001 71.5608 35.381V37.3107C71.5608 37.4376 72.551 37.6154 73.9475 37.7423C74.6584 37.7931 75.0139 37.8185 75.0393 37.8185C75.5471 37.8947 75.9534 37.9454 76.2327 37.9454C76.5373 37.9454 76.9944 37.9708 77.6291 37.9962L79.0764 38.0724C79.4827 38.0978 80.2444 38.0978 81.3616 38.0978C81.5647 38.1993 81.5393 37.6407 81.6155 37.2599C81.6916 36.879 81.717 35.965 81.7424 35.7872C81.7678 35.5079 81.8186 35.0763 81.8186 34.9747C81.8186 34.8478 81.717 34.7716 81.5393 34.7716C80.8284 34.7716 80.4729 34.7716 80.4729 34.7716C78.6702 34.7716 77.5276 34.7462 77.0959 34.7208L74.5061 34.5431C74.3538 32.3341 74.2776 29.795 74.2776 26.9513V26.4181C74.2776 26.0372 74.2776 25.504 74.2522 24.8185V23.2189C74.2522 22.9396 74.2522 22.8126 74.2522 22.8126V21.4161ZM84.349 37.7677C84.349 37.9454 84.5267 38.0216 84.8568 38.0216C85.0345 38.0216 85.6439 37.9708 85.8724 37.9708C86.1517 37.9708 86.5072 37.92 86.9134 37.8185C88.056 37.5392 88.9447 37.1837 89.6048 36.7521C91.9154 35.2032 93.2865 33.045 93.6673 30.2775C93.7181 29.9474 93.7435 28.9572 93.7435 27.2814C93.7181 26.3927 93.4642 25.5548 92.9818 24.7169C92.4994 23.879 91.9662 23.2189 91.3314 22.7872C90.0619 21.8986 88.7416 21.3654 87.3451 21.1622C86.9134 21.0861 86.1771 21.0353 85.0853 21.0353C84.5013 21.0353 84.1966 21.0861 84.1966 21.1622C84.1712 22.1779 84.1459 23.0157 84.1459 23.7013V25.4532C84.1459 27.0021 84.1712 29.0333 84.2474 31.3693L84.3236 33.9083C84.3236 34.1876 84.349 34.797 84.349 35.0763C84.349 35.4825 84.349 35.6857 84.349 35.6857C84.349 36.5236 84.349 36.9298 84.349 36.9298V37.7677ZM87.1166 24.5138C89.0716 24.5138 90.6459 25.6818 90.6459 27.5099C90.6459 27.6115 90.6205 27.9161 90.6205 28.0177C90.6205 30.6583 89.6048 32.9689 88.0814 34.1622C87.7513 34.4415 87.4212 34.6193 87.1166 34.6954V33.629C87.1166 33.1974 87.1166 32.3849 87.0912 31.2423V28.8302V25.9357V25.1486C87.0912 24.8693 87.0912 24.6407 87.1166 24.5138ZM103.663 15.9572C103.383 16.338 102.342 17.2775 101.987 17.6329L100.692 18.9025C100.184 19.4103 99.9302 19.7404 99.9302 19.8927C99.9302 20.045 100.413 20.1212 101.403 20.1212C101.809 20.1212 102.19 20.0958 102.571 20.0704C102.647 20.045 102.825 20.0958 102.85 20.0958C102.926 20.0958 103.002 20.0704 103.079 20.0197C103.409 19.7657 103.916 19.3341 104.653 18.6993C105.313 18.1915 105.694 17.8107 105.821 17.5314C105.821 17.379 105.567 17.1251 105.084 16.795C104.348 16.2111 103.891 15.9318 103.713 15.9318C103.688 15.9318 103.688 15.9318 103.663 15.9572ZM98.5591 20.6798C98.1782 20.6544 97.8735 20.6544 97.645 20.6544C96.7817 20.6544 96.3501 20.7052 96.3501 20.8322V25.0724C96.3501 25.504 96.3247 26.1896 96.2993 27.0782C96.2739 27.9669 96.2739 28.6271 96.2739 29.0841V31.0646C96.2739 31.2423 96.2485 32.0294 96.1977 33.4513C96.1723 34.8478 96.147 35.8634 96.147 36.4474C96.147 37.0568 96.1723 37.3868 96.1977 37.4122C96.4516 37.6661 98.6606 37.7931 102.85 37.7931H103.967H104.348H104.983C105.135 37.7931 105.44 37.7677 105.872 37.7423C106.024 37.7423 106.913 37.6915 106.989 37.6154C107.065 37.5392 107.116 37.2853 107.116 36.8536C107.116 36.7267 107.09 36.2189 107.04 35.3556V35.1017C107.04 34.67 107.014 34.4415 106.938 34.4161C106.709 34.3146 106.43 34.2638 106.049 34.2638C105.821 34.2638 105.084 34.3146 104.805 34.3146H104.78C102.038 34.1876 100.235 34.0861 99.397 34.0353C99.4223 33.756 99.4223 33.172 99.4477 32.2579L99.5239 29.9728C100.463 30.0997 101.758 30.1759 103.434 30.1759H103.51H104.323H104.424C104.45 30.1759 104.983 30.0997 105.008 30.0997C105.084 30.0997 105.135 29.9474 105.135 29.6681C105.135 29.4396 105.084 29.0587 105.008 28.5255C104.932 27.9923 104.907 27.713 104.907 27.6876C104.881 27.5099 104.627 27.4337 104.145 27.4337H103.51H103.358C101.911 27.3829 100.616 27.3068 99.4985 27.1798C99.4985 27.1544 99.4731 26.9767 99.4731 26.9005C99.4731 26.7482 99.4731 26.4435 99.4985 26.0118C99.5239 25.5802 99.5239 25.2755 99.5239 25.0978V24.2599C99.727 24.2599 100.311 24.2091 100.54 24.2091C100.92 24.2091 101.504 24.2091 102.241 24.2345H103.916C104.221 24.2345 104.932 24.2091 105.211 24.2091C105.338 24.2091 105.592 24.2091 105.999 24.1837C106.43 24.1583 106.684 24.1583 106.786 24.1583C106.963 24.1583 107.065 23.879 107.065 23.295C107.065 23.1173 107.04 22.8126 107.014 22.4318C106.989 22.0255 106.963 21.797 106.963 21.7208C106.938 20.8829 106.887 20.8575 106.151 20.8322C102.088 20.7306 99.7778 20.6798 99.2192 20.6798H98.5591ZM112.947 35.5587C112.388 35.381 111.83 34.8986 111.449 34.6447L110.966 34.1876L110.509 33.7306C110.433 33.6544 110.23 33.1974 110.078 33.1974C109.9 33.2482 109.646 33.5782 109.341 34.1876C109.037 34.797 108.884 35.2032 108.884 35.381C108.884 36.1173 109.392 36.8282 110.433 37.5646C111.474 38.3009 112.566 38.6818 113.709 38.7072C113.785 38.7072 113.963 38.7325 113.988 38.7325C115.537 38.7325 116.705 38.3771 117.466 37.6661C118.406 36.7775 118.863 35.5587 118.863 33.9591C118.863 32.7404 118.558 31.6993 117.949 30.8107C117.746 30.5314 117.39 30.1759 116.908 29.7189C116.476 29.3126 115.562 28.7286 114.216 27.9669C113.734 27.5861 113.328 27.129 112.998 26.5704C112.871 26.2404 112.795 25.9611 112.795 25.7325C112.795 24.7423 113.734 24.1329 114.927 24.1329C115.765 24.1329 116.502 24.3868 117.162 24.8693C117.39 24.8693 117.593 24.463 117.796 23.6759C117.923 23.1935 117.974 22.8126 117.974 22.5333C117.974 22.3556 117.949 22.2286 117.898 22.1779C117.568 21.8224 116.984 21.4923 116.171 21.213C115.359 20.9337 114.673 20.7814 114.089 20.7814C113.963 20.7814 113.81 20.8068 113.632 20.8322C112.591 20.9845 111.677 21.4669 110.89 22.2794C110.103 23.0665 109.671 24.0314 109.57 25.1486V25.5802C109.57 26.6212 109.875 27.6368 110.484 28.6271C110.687 28.9572 110.966 29.2618 111.449 29.6681L111.906 30.0743C112.211 30.379 112.49 30.6075 112.769 30.7853L114.877 32.3341C115.638 32.9435 116.019 33.5782 116.019 34.2638C116.019 35.1525 115.359 35.7365 114.216 35.7365C113.785 35.7365 113.379 35.6857 112.947 35.5587Z" fill="white"/>
</g>
</g>
<defs>
<filter id="filter0_i" x="5.37512" y="5.57971" width="150.365" height="45.4348" filterUnits="userSpaceOnUse" color-interpolation-filters="sRGB">
<feFlood flood-opacity="0" result="BackgroundImageFix"/>
<feBlend mode="normal" in="SourceGraphic" in2="BackgroundImageFix" result="shape"/>
<feColorMatrix in="SourceAlpha" type="matrix" values="0 0 0 0 0 0 0 0 0 0 0 0 0 0 0 0 0 0 127 0" result="hardAlpha"/>
<feOffset dy="-2"/>
<feComposite in2="hardAlpha" operator="arithmetic" k2="-1" k3="1"/>
<feColorMatrix type="matrix" values="0 0 0 0 0.369739 0 0 0 0 0.00588658 0 0 0 0 0.131393 0 0 0 0.602497 0"/>
<feBlend mode="normal" in2="shape" result="effect1_innerShadow"/>
</filter>
<filter id="filter1_dd" x="42.3789" y="15.9318" width="78.484" height="25.9023" filterUnits="userSpaceOnUse" color-interpolation-filters="sRGB">
<feFlood flood-opacity="0" result="BackgroundImageFix"/>
<feColorMatrix in="SourceAlpha" type="matrix" values="0 0 0 0 0 0 0 0 0 0 0 0 0 0 0 0 0 0 127 0"/>
<feOffset dx="1" dy="2"/>
<feGaussianBlur stdDeviation="0.5"/>
<feColorMatrix type="matrix" values="0 0 0 0 0.255049 0 0 0 0 0.0969617 0 0 0 0 0.161373 0 0 0 0.272475 0"/>
<feBlend mode="normal" in2="BackgroundImageFix" result="effect1_dropShadow"/>
<feColorMatrix in="SourceAlpha" type="matrix" values="0 0 0 0 0 0 0 0 0 0 0 0 0 0 0 0 0 0 127 0"/>
<feOffset dy="2"/>
<feColorMatrix type="matrix" values="0 0 0 0 0.545098 0 0 0 0 0.027451 0 0 0 0 0.164706 0 0 0 1 0"/>
<feBlend mode="normal" in2="effect1_dropShadow" result="effect2_dropShadow"/>
<feBlend mode="normal" in="SourceGraphic" in2="effect2_dropShadow" result="shape"/>
</filter>
<linearGradient id="paint0_linear" x1="5.37512" y1="5.57971" x2="5.37512" y2="51.0145" gradientUnits="userSpaceOnUse">
<stop stop-color="#FF476D"/>
<stop offset="0.97803" stop-color="#D01138"/>
</linearGradient>
</defs>
</svg>
