<svg width="255" height="56" viewBox="0 0 255 56" fill="none" xmlns="http://www.w3.org/2000/svg">
<g clip-path="url(#clip0)">
<path fill-rule="evenodd" clip-rule="evenodd" d="M31.8839 3.48067C18.304 4.82807 2.53062 10.9188 0.202211 26.0241C-2.1262 41.1295 16.1 50.6102 31.8839 52.7265C47.6679 54.8428 55.7553 55.3684 99.715 55.7133C119.328 55.8672 144.643 55.7422 160.136 55.7133C179.367 55.6775 203.256 54.358 212.19 53.8429C231.554 52.7265 249.865 46.0689 253.554 36.2305C257.243 26.3921 253.554 20.0006 246.104 12.8656C238.653 5.73049 218.225 2.65382 200.065 1.88827C181.905 1.12272 160.74 0.195069 155.674 0.195069C150.608 0.195069 101.366 -0.243837 78.9391 0.195069C56.5117 0.633975 45.4639 2.13326 31.8839 3.48067Z" fill="white"/>
<g filter="url(#filter0_i)">
<path fill-rule="evenodd" clip-rule="evenodd" d="M38.0548 8.535C25.4502 9.64808 10.8097 14.6795 8.6485 27.1578C6.48732 39.6362 23.4045 47.4681 38.0548 49.2164C52.705 50.9646 60.2116 51.3988 101.014 51.6837C119.219 51.8108 142.715 51.7075 157.095 51.6837C174.945 51.6541 197.119 50.5641 205.41 50.1386C223.384 49.2164 240.38 43.7166 243.804 35.5892C247.228 27.4618 243.804 22.1819 236.888 16.2877C229.973 10.3935 211.012 7.85195 194.156 7.21954C177.301 6.58714 157.656 5.82081 152.954 5.82081C148.251 5.82081 102.547 5.45824 81.7303 5.82081C60.9137 6.18339 50.6593 7.42193 38.0548 8.535Z" fill="url(#paint0_linear)"/>
</g>
<mask id="mask0" mask-type="alpha" maskUnits="userSpaceOnUse" x="8" y="5" width="238" height="47">
<path fill-rule="evenodd" clip-rule="evenodd" d="M38.0548 8.535C25.4502 9.64808 10.8097 14.6795 8.6485 27.1578C6.48732 39.6362 23.4045 47.4681 38.0548 49.2164C52.705 50.9646 60.2116 51.3988 101.014 51.6837C119.219 51.8108 142.715 51.7075 157.095 51.6837C174.945 51.6541 197.119 50.5641 205.41 50.1386C223.384 49.2164 240.38 43.7166 243.804 35.5892C247.228 27.4618 243.804 22.1819 236.888 16.2877C229.973 10.3936 211.012 7.85195 194.156 7.21954C177.301 6.58714 157.656 5.82081 152.954 5.82081C148.251 5.82081 102.547 5.45824 81.7303 5.82081C60.9137 6.18339 50.6593 7.42193 38.0548 8.535Z" fill="white"/>
</mask>
<g mask="url(#mask0)">
<path fill-rule="evenodd" clip-rule="evenodd" d="M7.052 22.6388C7.052 22.6388 11.3519 11.2496 25.8666 8.54658C40.3813 5.84353 47.6691 5.71073 61.5656 4.87667C75.4621 4.0426 124.433 4.0426 131.648 4.0426C138.862 4.0426 191.295 5.03375 197.03 5.55812C202.764 6.0825 217.229 6.72008 228.029 10.4504C238.829 14.1807 240.919 20.0466 240.919 20.0466C240.919 20.0466 227.582 14.6154 216.141 12.5433C204.7 10.4712 179.091 11.0526 171.502 11.0526C163.912 11.0526 138.66 11.0526 116.011 11.0526C93.3615 11.0526 78.9164 10.4504 67.284 10.4504C55.6516 10.4504 40.6077 12.3138 33.0858 13.1741C25.564 14.0344 7.052 22.6388 7.052 22.6388Z" fill="white" fill-opacity="0.436113"/>
<path fill-rule="evenodd" clip-rule="evenodd" d="M245.146 29.9157C245.146 29.9157 241.622 41.2583 224.365 46.7422C207.109 52.2261 203.94 50.4554 190.2 50.4554C176.459 50.4554 181.837 51.746 166.573 51.746C151.308 51.746 125.734 51.746 118.515 51.746C111.296 51.746 88.9675 51.0497 80.4954 51.0497C72.0233 51.0497 57.7147 49.712 52.9273 49.712C48.1399 49.712 32.4676 48.4347 21.6611 44.4833C10.8546 40.5319 8.46075 30.8972 8.46075 30.8972C8.46075 30.8972 22.763 36.3494 34.2108 38.5443C45.6587 40.7392 70.4904 40.3317 78.0845 40.3317C85.6786 40.3317 111.414 39.7651 134.077 39.7651C156.74 39.7651 172.956 39.7651 184.595 39.7651C196.235 39.7651 211.136 38.4233 218.662 37.512C226.188 36.6008 245.146 29.9157 245.146 29.9157Z" fill="#8B072A" fill-opacity="0.243235"/>
<path opacity="0.84854" fill-rule="evenodd" clip-rule="evenodd" d="M228.333 16.779C230.947 17.5234 231.439 18.5956 233.495 18.3389C235.551 18.0822 233.845 16.1975 232.074 15.2423C230.302 14.2871 227.375 13.7854 224.315 13.3899C221.256 12.9943 220.886 14.3238 220.886 14.3238C220.886 14.3238 221.472 14.9292 223.712 15.553C225.953 16.1768 225.719 16.0346 228.333 16.779Z" fill="white"/>
<path opacity="0.668457" fill-rule="evenodd" clip-rule="evenodd" d="M23.4829 40.1367C21.4011 40.3098 23.179 41.8228 24.8313 42.847C26.4836 43.8712 26.1728 43.6818 29.1769 44.1999C32.1809 44.7179 32.7108 43.4069 32.7108 43.4069C32.7108 43.4069 32.1991 42.7794 30.0391 42.0668C27.8792 41.3542 25.5647 39.9637 23.4829 40.1367Z" fill="white"/>
<path opacity="0.84854" fill-rule="evenodd" clip-rule="evenodd" d="M213.426 11.7817C213.426 11.7817 212.153 11.6317 211.8 12.0634C211.447 12.4951 211.36 12.8209 212.344 12.9164C213.328 13.012 213.889 13.1497 214.637 13.2223C215.385 13.295 215.477 12.9973 215.477 12.9973C215.477 12.9973 215.526 12.5149 215.036 12.2244C214.546 11.934 213.426 11.7817 213.426 11.7817Z" fill="white"/>
<g filter="url(#filter1_dd)">
<path d="M29.0445 36.3047C29.5015 36.3047 29.8062 36.3555 29.857 36.3555C29.9077 36.3555 29.9331 36.3047 29.9331 36.2031V32.0645V30.1855C31.1265 31.1758 33.5894 33.0801 37.3726 35.873C37.6519 36.0762 38.2359 36.6602 38.6421 36.6602C38.9722 36.5332 39.3023 36.1016 39.6323 35.3652C39.7593 35.1113 40.064 34.5781 40.064 34.4004C40.064 34.3242 40.0386 34.248 40.0132 34.2227C39.7847 33.9941 39.3531 33.5879 38.7437 33.0547C38.1343 32.5215 37.7281 32.1914 37.5249 32.0645L35.2906 30.2109C34.3257 29.373 33.6148 28.7891 33.1831 28.4844C34.7827 26.834 36.357 25.0566 37.9058 23.1777C37.9312 23.127 38.1343 22.873 38.5152 22.4414C38.896 22.0098 39.2515 21.5781 39.5816 21.1465C39.937 20.7148 40.1148 20.4609 40.1148 20.3848C40.1148 20.3086 39.3277 19.9785 37.7281 19.3438C37.6519 19.2676 37.6011 19.2422 37.5249 19.2422C37.3726 19.2422 37.1187 19.4707 36.7886 19.9023C35.773 20.9434 34.021 22.8477 31.5327 25.666C30.9488 26.25 30.4156 26.707 29.9331 27.0371V23.584C29.9331 23.1523 29.9077 22.0352 29.9077 21.6035C29.9077 20.8164 29.9331 20.1055 30.0093 19.4707C30.0601 19.1152 30.0347 18.8867 29.9331 18.7852C29.857 18.709 29.6031 18.6328 29.146 18.5566C28.7144 18.4805 28.3081 18.4297 27.9781 18.4297C27.6988 18.4297 27.5464 18.4551 27.4702 18.5312C27.3941 18.709 27.2417 20.4609 27.0132 23.7617C26.9624 24.4473 26.8863 25.5137 26.8101 26.9355L26.6323 30.1348C26.607 30.5664 26.5816 31.2266 26.5816 32.0898V33.1816C26.5816 33.4102 26.5562 34.0195 26.5562 34.248C26.5562 35.416 26.5562 36 26.5562 36C26.5562 36.2031 26.9878 36.3047 27.8257 36.3047C28.1812 36.3047 28.3589 36.3047 28.3589 36.3047C28.8159 36.3047 29.0445 36.3047 29.0445 36.3047ZM49.6022 13.7832C49.3229 14.1641 48.2819 15.1035 47.9264 15.459L46.6315 16.7285C46.1237 17.2363 45.8698 17.5664 45.8698 17.7188C45.8698 17.8711 46.3522 17.9473 47.3424 17.9473C47.7487 17.9473 48.1295 17.9219 48.5104 17.8965C48.5866 17.8711 48.7643 17.9219 48.7897 17.9219C48.8659 17.9219 48.942 17.8965 49.0182 17.8457C49.3483 17.5918 49.8561 17.1602 50.5924 16.5254C51.2526 16.0176 51.6334 15.6367 51.7604 15.3574C51.7604 15.2051 51.5065 14.9512 51.0241 14.6211C50.2877 14.0371 49.8307 13.7578 49.653 13.7578C49.6276 13.7578 49.6276 13.7578 49.6022 13.7832ZM44.4987 18.5059C44.1178 18.4805 43.8131 18.4805 43.5846 18.4805C42.7213 18.4805 42.2897 18.5312 42.2897 18.6582V22.8984C42.2897 23.3301 42.2643 24.0156 42.2389 24.9043C42.2135 25.793 42.2135 26.4531 42.2135 26.9102V28.8906C42.2135 29.0684 42.1881 29.8555 42.1373 31.2773C42.112 32.6738 42.0866 33.6895 42.0866 34.2734C42.0866 34.8828 42.112 35.2129 42.1373 35.2383C42.3913 35.4922 44.6002 35.6191 48.7897 35.6191H49.9069H50.2877H50.9225C51.0748 35.6191 51.3795 35.5938 51.8112 35.5684C51.9635 35.5684 52.8522 35.5176 52.9284 35.4414C53.0045 35.3652 53.0553 35.1113 53.0553 34.6797C53.0553 34.5527 53.0299 34.0449 52.9791 33.1816V32.9277C52.9791 32.4961 52.9538 32.2676 52.8776 32.2422C52.6491 32.1406 52.3698 32.0898 51.9889 32.0898C51.7604 32.0898 51.0241 32.1406 50.7448 32.1406H50.7194C47.9772 32.0137 46.1745 31.9121 45.3366 31.8613C45.362 31.582 45.362 30.998 45.3873 30.084L45.4635 27.7988C46.403 27.9258 47.6979 28.002 49.3737 28.002H49.4498H50.2623H50.3639C50.3893 28.002 50.9225 27.9258 50.9479 27.9258C51.0241 27.9258 51.0748 27.7734 51.0748 27.4941C51.0748 27.2656 51.0241 26.8848 50.9479 26.3516C50.8717 25.8184 50.8463 25.5391 50.8463 25.5137C50.8209 25.3359 50.567 25.2598 50.0846 25.2598H49.4498H49.2975C47.8502 25.209 46.5553 25.1328 45.4381 25.0059C45.4381 24.9805 45.4127 24.8027 45.4127 24.7266C45.4127 24.5742 45.4127 24.2695 45.4381 23.8379C45.4635 23.4062 45.4635 23.1016 45.4635 22.9238V22.0859C45.6666 22.0859 46.2506 22.0352 46.4791 22.0352C46.86 22.0352 47.444 22.0352 48.1803 22.0605H49.8561C50.1608 22.0605 50.8717 22.0352 51.151 22.0352C51.278 22.0352 51.5319 22.0352 51.9381 22.0098C52.3698 21.9844 52.6237 21.9844 52.7252 21.9844C52.903 21.9844 53.0045 21.7051 53.0045 21.1211C53.0045 20.9434 52.9791 20.6387 52.9538 20.2578C52.9284 19.8516 52.903 19.623 52.903 19.5469C52.8776 18.709 52.8268 18.6836 52.0905 18.6582C48.028 18.5566 45.7174 18.5059 45.1588 18.5059H44.4987ZM55.5857 19.75C55.5603 19.75 55.5349 20.0039 55.5349 20.5117C55.5349 21.2988 55.6111 23.0508 55.6111 23.0254C55.6111 23.2031 55.6365 23.6348 55.6365 23.8125C55.6365 24.0664 55.6365 24.4473 55.6111 24.9297V26.0469V26.25C55.6111 26.4531 55.6365 26.9609 55.6365 27.1387C55.6365 27.3672 55.6619 28.002 55.6619 28.2305L55.7381 29.6523C55.7634 30.2871 55.7888 30.7441 55.7888 31.0488C55.8396 31.582 55.8904 32.4707 55.9412 33.6895C55.992 34.9082 56.0427 35.8477 56.1189 36.4824C56.1951 36.9648 56.2459 37.1934 56.2966 37.1934C56.7283 37.1934 57.4138 37.1172 58.3533 36.9648C58.6072 36.9141 58.8865 36.8887 59.1658 36.8887C59.2166 36.8887 59.242 36.7363 59.242 36.4316C59.242 36.2539 59.2166 35.9238 59.1912 35.4414L59.1404 34.7051C58.9881 33.1816 58.8611 31.582 58.7595 29.9062V29.7793C58.8865 29.7793 59.0642 29.7031 59.1912 29.7031C59.3689 29.7031 59.9021 29.7285 60.1052 29.7285C61.5525 29.7285 62.5681 29.6016 63.2029 29.3223C63.8884 28.9922 64.4216 28.6113 64.8025 28.1797C65.8435 26.9863 66.3513 25.7422 66.3513 24.4473C66.3513 24.1934 66.3513 23.9902 66.3259 23.8633C66.0213 20.7402 64.4216 19.5469 61.0447 19.2422C60.4861 19.1914 59.9783 19.166 59.4959 19.166C56.906 19.166 55.6111 19.3691 55.5857 19.75ZM58.658 23.2539C58.658 23.0254 58.6834 22.3906 58.7088 22.1621C59.1404 22.1367 59.4959 22.1113 59.7752 22.1113C60.0798 22.1113 60.3084 22.1113 60.4353 22.1367H60.6384C62.2888 22.2129 63.1267 22.873 63.2029 24.0918C63.1775 25.082 62.9744 25.7422 62.5427 26.123C62.1111 26.4785 61.324 26.707 60.1814 26.8086C60.0037 26.834 59.7498 26.834 59.4197 26.834C58.9373 26.834 58.7088 26.8086 58.7088 26.7324C58.7088 26.4277 58.7088 25.9707 58.6834 25.3867C58.658 24.7773 58.658 24.3203 58.658 23.9902V23.2539ZM87.7129 19.1152C87.6367 19.0391 87.2051 18.9375 86.3926 18.8105C85.6055 18.6836 84.9453 18.6074 84.4375 18.6074C84.1582 18.6074 83.9805 18.6328 83.9297 18.6582C83.3711 19.3945 82.6348 20.5371 81.7207 22.0859C80.832 23.6348 80.0703 24.7773 79.4609 25.5137C79.4863 25.1074 79.4863 24.498 79.4863 23.6602V20.1309V19.4961V18.4551C79.4863 18.2012 78.7754 18.0742 77.3789 18.0742H76.4141L76.3887 19.5215L76.3633 19.877C76.1348 25.209 76.0078 30.541 76.0078 35.8477C76.1094 35.9492 76.7441 36 77.9375 36H78.9785H79.3086C79.3848 36 79.4355 35.6953 79.4355 35.1113C79.4355 34.8828 79.4355 34.502 79.4102 33.9688C79.3848 33.4102 79.3848 33.0039 79.3848 32.75V31.5312C79.3848 31.3281 79.3848 30.998 79.3594 30.5664V29.6016C79.3594 29.3984 79.3848 28.8398 79.3848 28.6367V28.5352C79.4863 28.5859 79.7656 28.5859 79.7656 28.6367C80.375 29.5762 81.0859 30.8203 81.9238 32.3184L83.2949 34.7305C83.625 35.3145 83.8789 35.7207 84.0566 35.9492C84.1328 36.0508 84.6152 36.1016 85.5039 36.1016C86.9512 36.1016 87.6621 36.0254 87.6621 35.873C87.6621 35.7461 87.4844 35.416 87.1543 34.8574C86.875 34.4258 85.9102 32.877 84.3105 30.2109C83.2695 28.459 82.5586 27.418 82.2031 27.0371C83.3965 25.5645 85.2246 22.9238 87.7129 19.1152ZM89.7355 18.252C89.6085 18.252 89.5577 18.7598 89.5577 19.8008C89.5577 20.8418 89.6339 21.4258 89.7609 21.5527C89.8116 21.6035 89.964 21.6289 90.2433 21.6289C90.4464 21.6289 90.8527 21.6035 90.8781 21.6035H90.9796C91.0812 21.6035 91.4874 21.6289 91.6906 21.6289C92.173 21.6289 92.4523 21.5781 92.5538 21.4766C92.6046 21.4258 92.63 21.1465 92.63 20.6387C92.63 20.3594 92.63 20.2324 92.63 20.2324C92.63 19.0898 92.5792 18.4805 92.4777 18.3789C92.4015 18.3027 92.2238 18.2773 91.9191 18.2773C91.6398 18.2773 91.4874 18.2773 91.4874 18.2773H91.132C90.9288 18.252 90.7765 18.2266 90.7003 18.2266H90.6749C90.5988 18.2266 90.4464 18.2266 90.1671 18.252H89.7355ZM90.4718 23.1523H89.964C89.8878 23.1777 89.8624 23.5332 89.8624 24.2441C89.8624 24.8027 89.8878 25.6914 89.8878 25.6914V26.3008C90.0402 29.7793 90.1163 31.9629 90.1417 32.8262C90.1925 34.9844 90.2433 36.2285 90.2941 36.5586C90.3702 36.7109 90.7003 36.7871 91.3097 36.7871C91.6906 36.7871 91.9698 36.7871 92.1476 36.7617C92.2745 36.7617 92.3507 36.7617 92.3507 36.7617C92.7062 36.7617 92.9093 36.7109 92.9855 36.584V36.0762C92.9855 35.9492 92.9855 35.8984 92.9855 35.8984V33.918C92.9855 33.8418 92.9601 33.5879 92.9601 33.5117C92.9601 32.877 92.9601 32.5469 92.9601 32.5469C92.9601 27.9004 92.8585 24.8027 92.6554 23.2285C92.63 23.1523 92.5284 23.127 92.3253 23.127H92.1476C92.046 23.127 91.7413 23.1523 91.5636 23.1523H90.4718ZM109.76 20.1309C109.151 19.8262 108.795 19.6738 108.668 19.6738C108.617 19.6738 108.567 19.6992 108.49 19.7246C108.287 19.8516 107.983 20.207 107.856 20.4355C107.729 20.6641 107.424 21.1973 107.348 21.2988C107.094 21.6797 106.764 22.2129 106.358 22.9492C105.951 23.6855 105.672 24.168 105.494 24.4473C105.291 24.752 105.037 25.2344 104.707 25.8945C104.377 26.5547 104.123 27.0371 103.92 27.3418C103.742 27.5957 103.489 28.1035 103.158 28.8652C103.133 28.7891 102.727 28.1543 101.965 26.9355L100.01 23.8379L99.4514 22.873L98.9182 21.8828L98.0295 20.334C97.9534 20.207 97.2932 20.1309 96.0745 20.1055C95.5159 20.0547 95.1858 20.0293 95.1096 20.0293C94.8811 20.0293 94.7795 20.0801 94.8049 20.1816C95.1096 21.2988 95.7698 22.7207 96.76 24.4473C96.9631 24.7773 97.2424 25.2852 97.5979 25.9707C97.9534 26.6562 98.2327 27.1895 98.4358 27.5195C98.6135 27.8242 98.8928 28.2559 99.2229 28.8398L99.9338 30.0586L100.365 30.7695C100.594 31.125 100.746 31.4043 100.873 31.582C101.076 31.8613 101.889 33.2578 102.473 34.1973C102.955 34.8828 103.387 35.3398 103.615 35.3398H103.692C103.971 35.1367 104.301 34.6289 104.682 33.8164C104.834 33.5371 104.987 33.207 105.114 32.8262C105.901 31.2266 106.383 30.1602 106.612 29.627C106.688 29.4492 106.865 29.1445 107.094 28.7129C107.348 28.2812 107.526 27.9258 107.653 27.6973C107.78 27.418 108.033 26.9609 108.364 26.3008C108.719 25.6406 108.973 25.1074 109.151 24.7266C109.252 24.498 109.455 24.1172 109.735 23.584C110.014 23.0508 110.242 22.6191 110.369 22.3145C110.573 21.9336 110.852 21.4766 110.852 20.9688C110.75 20.6895 110.395 20.4102 109.76 20.1309ZM119.831 14.3672C119.552 14.748 118.511 15.6875 118.156 16.043L116.861 17.3125C116.353 17.8203 116.099 18.1504 116.099 18.3027C116.099 18.4551 116.581 18.5312 117.572 18.5312C117.978 18.5312 118.359 18.5059 118.74 18.4805C118.816 18.4551 118.994 18.5059 119.019 18.5059C119.095 18.5059 119.171 18.4805 119.247 18.4297C119.577 18.1758 120.085 17.7441 120.822 17.1094C121.482 16.6016 121.863 16.2207 121.99 15.9414C121.99 15.7891 121.736 15.5352 121.253 15.2051C120.517 14.6211 120.06 14.3418 119.882 14.3418C119.857 14.3418 119.857 14.3418 119.831 14.3672ZM112.29 36.127C112.29 36.3301 112.976 36.4316 114.322 36.4316C114.499 36.4316 114.804 36.457 114.88 36.457C115.109 36.457 115.236 36.3555 115.236 36.1777V32.2676C115.236 30.7695 115.236 29.7539 115.21 29.2715C115.236 29.2715 115.261 29.2461 115.261 29.1699C115.286 29.1445 115.312 29.1445 115.363 29.1445C115.718 29.0938 116.074 29.0684 116.454 29.0684C116.759 29.0684 117.165 29.0938 117.699 29.1191C118.232 29.1445 118.562 29.1699 118.74 29.1699H119.324H120.111H120.314C120.314 29.3477 120.39 29.5762 120.39 29.7539C120.39 30.1602 120.415 31.0488 120.492 32.3945C120.568 33.7402 120.593 34.6797 120.593 35.2129C120.593 35.4922 120.898 35.6445 121.507 35.6445C121.609 35.6445 121.964 35.6191 122.066 35.6191C122.853 35.5938 123.31 35.5176 123.437 35.3906C123.513 35.3145 123.437 34.9844 123.488 34.6543C123.488 33.3594 123.462 32.5469 123.411 32.2676L123.335 30.668C123.31 29.957 123.31 29.4238 123.31 29.0684L123.132 24.0918C123.132 23.9141 123.107 23.5078 123.107 23.3301V22.416C123.107 21.6035 123.107 20.9688 123.081 20.5371C123.056 20.1562 122.904 20.0801 122.497 20.0547C122.218 20.0293 121.329 19.9023 119.882 19.6738C118.435 19.4453 117.191 19.293 116.124 19.1914C115.058 19.0898 114.042 19.0391 113.052 19.0391H112.443C112.316 19.0391 112.265 19.3438 112.265 19.9785V20.7148C112.29 21.0703 112.29 21.3242 112.29 21.502V22.0859C112.265 22.8984 112.24 23.5078 112.24 23.9141V24.4219C112.24 24.7773 112.214 25.2852 112.189 25.9707C112.163 26.6309 112.163 27.1387 112.163 27.4688C112.163 28.332 112.189 29.7793 112.214 31.8359C112.265 33.8672 112.29 35.2891 112.29 36.127ZM115.566 26.0977C115.54 26.0977 115.515 26.0977 115.515 26.0977V26.0723C115.439 26.0723 115.363 26.0723 115.312 26.0469C115.286 25.7168 115.286 25.2344 115.286 24.5488C115.286 23.9141 115.286 23.584 115.286 23.584C115.286 23.1016 115.286 22.8477 115.286 22.8477V22.5684C115.54 22.5684 115.972 22.5684 116.556 22.543C117.165 22.5176 117.622 22.4922 117.952 22.4922C118.638 22.4922 119.171 22.5176 119.603 22.543H119.984C119.984 22.6445 120.009 22.8984 120.009 23V23.7617V25.082V25.793V26.1992C119.73 26.1484 119.501 26.123 119.298 26.123H119.095H118.765H118.562C118.283 26.123 117.546 26.0977 117.242 26.0977H117.216H116.327H115.566ZM126.374 18.7598C126.145 18.7598 126.018 18.8359 126.018 19.0137C126.018 19.1406 125.993 19.9277 125.967 21.3496C125.942 22.7715 125.916 23.6348 125.916 23.9648C125.916 24.0918 125.942 24.4727 125.942 24.5996L125.967 25.0312C126.094 29.627 126.17 32.3691 126.221 33.3086V33.6133V34.6035C126.247 35.1621 126.247 35.5176 126.272 35.6445C126.399 35.8223 126.78 35.9238 127.465 35.9238C127.694 35.9238 128.024 35.9238 128.481 35.8984C128.938 35.873 129.268 35.8477 129.471 35.8477H129.624L130.03 35.873C132.493 35.8984 134.041 35.9746 134.676 36.0508H134.803C135.54 36.0508 135.616 35.3145 135.616 34.5527V34.3242V33.6641C135.616 33.4355 135.641 33.0039 135.641 32.9277C135.641 32.7246 134.295 32.623 131.629 32.623H129.801L129.42 32.6484C129.395 32.6484 129.293 32.623 129.268 32.623C128.836 28.6875 128.633 25.3613 128.633 22.6699V22.1621C128.608 21.8828 128.608 21.4258 128.608 20.8164V19.3691C128.583 19.1914 128.379 19.0391 128.024 18.9121H127.948L127.135 18.8359C126.754 18.8105 126.526 18.7852 126.45 18.7598H126.374ZM137.968 36.127C137.968 36.3301 138.654 36.4316 140 36.4316C140.177 36.4316 140.482 36.457 140.558 36.457C140.787 36.457 140.914 36.3555 140.914 36.1777V32.2676C140.914 30.7695 140.914 29.7539 140.888 29.2715C140.914 29.2715 140.939 29.2461 140.939 29.1699C140.964 29.1445 140.99 29.1445 141.041 29.1445C141.396 29.0938 141.752 29.0684 142.132 29.0684C142.437 29.0684 142.843 29.0938 143.377 29.1191C143.91 29.1445 144.24 29.1699 144.418 29.1699H145.002H145.789H145.992C145.992 29.3477 146.068 29.5762 146.068 29.7539C146.068 30.1602 146.093 31.0488 146.17 32.3945C146.246 33.7402 146.271 34.6797 146.271 35.2129C146.271 35.4922 146.576 35.6445 147.185 35.6445C147.287 35.6445 147.642 35.6191 147.744 35.6191C148.531 35.5938 148.988 35.5176 149.115 35.3906C149.191 35.3145 149.115 34.9844 149.166 34.6543C149.166 33.3594 149.14 32.5469 149.089 32.2676L149.013 30.668C148.988 29.957 148.988 29.4238 148.988 29.0684L148.81 24.0918C148.81 23.9141 148.785 23.5078 148.785 23.3301V22.416C148.785 21.6035 148.785 20.9688 148.759 20.5371C148.734 20.1562 148.582 20.0801 148.175 20.0547C147.896 20.0293 147.007 19.9023 145.56 19.6738C144.113 19.4453 142.869 19.293 141.802 19.1914C140.736 19.0898 139.72 19.0391 138.73 19.0391H138.121C137.994 19.0391 137.943 19.3438 137.943 19.9785V20.7148C137.968 21.0703 137.968 21.3242 137.968 21.502V22.0859C137.943 22.8984 137.918 23.5078 137.918 23.9141V24.4219C137.918 24.7773 137.892 25.2852 137.867 25.9707C137.841 26.6309 137.841 27.1387 137.841 27.4688C137.841 28.332 137.867 29.7793 137.892 31.8359C137.943 33.8672 137.968 35.2891 137.968 36.127ZM141.244 26.0977C141.218 26.0977 141.193 26.0977 141.193 26.0977V26.0723C141.117 26.0723 141.041 26.0723 140.99 26.0469C140.964 25.7168 140.964 25.2344 140.964 24.5488C140.964 23.9141 140.964 23.584 140.964 23.584C140.964 23.1016 140.964 22.8477 140.964 22.8477V22.5684C141.218 22.5684 141.65 22.5684 142.234 22.543C142.843 22.5176 143.3 22.4922 143.63 22.4922C144.316 22.4922 144.849 22.5176 145.281 22.543H145.662C145.662 22.6445 145.687 22.8984 145.687 23V23.7617V25.082V25.793V26.1992C145.408 26.1484 145.179 26.123 144.976 26.123H144.773H144.443H144.24C143.961 26.123 143.224 26.0977 142.92 26.0977H142.894H142.005H141.244ZM155.555 33.3848C154.997 33.207 154.438 32.7246 154.057 32.4707L153.575 32.0137L153.118 31.5566C153.042 31.4805 152.839 31.0234 152.686 31.0234C152.509 31.0742 152.255 31.4043 151.95 32.0137C151.645 32.623 151.493 33.0293 151.493 33.207C151.493 33.9434 152.001 34.6543 153.042 35.3906C154.083 36.127 155.175 36.5078 156.317 36.5332C156.393 36.5332 156.571 36.5586 156.596 36.5586C158.145 36.5586 159.313 36.2031 160.075 35.4922C161.014 34.6035 161.471 33.3848 161.471 31.7852C161.471 30.5664 161.167 29.5254 160.557 28.6367C160.354 28.3574 159.999 28.002 159.516 27.5449C159.085 27.1387 158.171 26.5547 156.825 25.793C156.342 25.4121 155.936 24.9551 155.606 24.3965C155.479 24.0664 155.403 23.7871 155.403 23.5586C155.403 22.5684 156.342 21.959 157.536 21.959C158.374 21.959 159.11 22.2129 159.77 22.6953C159.999 22.6953 160.202 22.2891 160.405 21.502C160.532 21.0195 160.583 20.6387 160.583 20.3594C160.583 20.1816 160.557 20.0547 160.507 20.0039C160.176 19.6484 159.592 19.3184 158.78 19.0391C157.967 18.7598 157.282 18.6074 156.698 18.6074C156.571 18.6074 156.419 18.6328 156.241 18.6582C155.2 18.8105 154.286 19.293 153.499 20.1055C152.712 20.8926 152.28 21.8574 152.178 22.9746V23.4062C152.178 24.4473 152.483 25.4629 153.092 26.4531C153.296 26.7832 153.575 27.0879 154.057 27.4941L154.514 27.9004C154.819 28.2051 155.098 28.4336 155.378 28.6113L157.485 30.1602C158.247 30.7695 158.628 31.4043 158.628 32.0898C158.628 32.9785 157.967 33.5625 156.825 33.5625C156.393 33.5625 155.987 33.5117 155.555 33.3848ZM166.236 18.8105C166.008 18.8105 165.551 18.8359 164.865 18.8613C164.18 18.8867 163.723 18.9121 163.494 18.9121C163.418 18.9121 163.367 19.0898 163.367 19.4199C163.367 19.6484 163.392 20.1055 163.469 20.7656C163.545 21.4004 163.57 21.832 163.57 22.0352C163.57 22.1621 163.773 22.2129 164.18 22.2129C164.383 22.2129 164.713 22.1875 165.17 22.1621C165.627 22.1113 165.931 22.0859 166.058 22.0859L169.029 21.9844C169.816 21.9082 170.349 21.8828 170.654 21.8574C169.969 23.1016 169.004 24.7773 167.734 26.8848C166.49 28.9922 165.424 30.8203 164.535 32.4199C164.281 32.9023 163.926 33.6387 163.494 34.6797C163.291 35.1621 163.265 35.4922 163.57 35.6953C164.484 35.9492 165.779 36.0762 167.43 36.0762C167.988 36.0762 168.775 36.0508 169.791 36.0254H173.168C173.574 36 174.336 36 175.453 36C175.58 36 175.656 35.6445 175.656 35.0098C175.681 34.6797 175.681 34.4766 175.707 34.3496C175.707 34.248 175.732 33.6387 175.732 33.5371C175.732 33.4609 175.224 33.3848 174.234 33.2578C173.549 33.1816 171.594 33.0293 168.344 32.8262H168.267H168.217C170.476 28.3574 172.457 24.8789 174.158 22.3652C174.92 21.375 175.453 20.5879 175.783 20.0547C175.935 19.8516 176.012 19.6484 176.012 19.4707C176.012 19.4453 176.012 19.4453 175.986 19.4199V19.3945C175.859 18.8613 174.818 18.6074 172.914 18.6074C172.051 18.6074 170.933 18.6328 169.537 18.709C168.14 18.7852 167.049 18.8105 166.236 18.8105ZM188.241 21.4258H188.978C189.054 21.248 189.079 21.0195 189.079 20.7402V20.1309V18.8867V18.709C189.079 18.4043 189.054 18.2266 189.028 18.1504C188.901 18.0996 188.698 18.0742 188.419 18.0742H188.14L184.382 18.2266L180.776 18.3535H179.913H179.278C179.05 18.3535 178.339 18.3789 178.11 18.3789C177.729 18.3789 177.552 18.4551 177.552 18.6074V18.8359C177.552 19.1406 177.577 19.8516 177.577 19.9785C177.577 20.6133 177.603 21.1211 177.653 21.502C177.679 21.6035 177.755 21.6543 177.907 21.6543C178.009 21.6543 178.44 21.6289 178.669 21.6289C178.872 21.6543 179.202 21.6543 179.634 21.6543H180.167C181.817 21.6543 180.395 21.6035 181.843 21.6035H182.02C182.02 21.7812 182.071 22.3652 182.071 22.4922C182.071 25.2598 182.173 28.1289 182.351 31.7598C182.427 33.5625 182.503 34.8828 182.528 35.7715C182.528 35.9492 183.011 36.0254 183.95 36.0254C184.56 36.0254 185.067 36 185.474 35.9492C185.601 35.9238 185.677 35.6953 185.677 35.3145C185.677 35.0605 185.651 34.7051 185.626 34.2734C185.474 30.8711 185.372 28.1797 185.321 26.1992C185.321 25.8691 185.296 25.3105 185.245 24.5742C185.194 23.8379 185.169 23.2539 185.169 22.8223C185.169 22.6445 185.144 22.1113 185.144 21.8066V21.4512C185.321 21.4512 186.54 21.4258 188.063 21.4258H188.241ZM199.049 14.3672C198.77 14.748 197.729 15.6875 197.373 16.043L196.078 17.3125C195.57 17.8203 195.316 18.1504 195.316 18.3027C195.316 18.4551 195.799 18.5312 196.789 18.5312C197.195 18.5312 197.576 18.5059 197.957 18.4805C198.033 18.4551 198.211 18.5059 198.236 18.5059C198.313 18.5059 198.389 18.4805 198.465 18.4297C198.795 18.1758 199.303 17.7441 200.039 17.1094C200.699 16.6016 201.08 16.2207 201.207 15.9414C201.207 15.7891 200.953 15.5352 200.471 15.2051C199.734 14.6211 199.277 14.3418 199.1 14.3418C199.074 14.3418 199.074 14.3418 199.049 14.3672ZM191.508 36.127C191.508 36.3301 192.193 36.4316 193.539 36.4316C193.717 36.4316 194.022 36.457 194.098 36.457C194.326 36.457 194.453 36.3555 194.453 36.1777V32.2676C194.453 30.7695 194.453 29.7539 194.428 29.2715C194.453 29.2715 194.479 29.2461 194.479 29.1699C194.504 29.1445 194.529 29.1445 194.58 29.1445C194.936 29.0938 195.291 29.0684 195.672 29.0684C195.977 29.0684 196.383 29.0938 196.916 29.1191C197.449 29.1445 197.779 29.1699 197.957 29.1699H198.541H199.328H199.531C199.531 29.3477 199.608 29.5762 199.608 29.7539C199.608 30.1602 199.633 31.0488 199.709 32.3945C199.785 33.7402 199.811 34.6797 199.811 35.2129C199.811 35.4922 200.115 35.6445 200.725 35.6445C200.826 35.6445 201.182 35.6191 201.283 35.6191C202.07 35.5938 202.527 35.5176 202.654 35.3906C202.731 35.3145 202.654 34.9844 202.705 34.6543C202.705 33.3594 202.68 32.5469 202.629 32.2676L202.553 30.668C202.527 29.957 202.527 29.4238 202.527 29.0684L202.35 24.0918C202.35 23.9141 202.324 23.5078 202.324 23.3301V22.416C202.324 21.6035 202.324 20.9688 202.299 20.5371C202.274 20.1562 202.121 20.0801 201.715 20.0547C201.436 20.0293 200.547 19.9023 199.1 19.6738C197.652 19.4453 196.408 19.293 195.342 19.1914C194.275 19.0898 193.26 19.0391 192.27 19.0391H191.66C191.533 19.0391 191.483 19.3438 191.483 19.9785V20.7148C191.508 21.0703 191.508 21.3242 191.508 21.502V22.0859C191.483 22.8984 191.457 23.5078 191.457 23.9141V24.4219C191.457 24.7773 191.432 25.2852 191.406 25.9707C191.381 26.6309 191.381 27.1387 191.381 27.4688C191.381 28.332 191.406 29.7793 191.432 31.8359C191.483 33.8672 191.508 35.2891 191.508 36.127ZM194.783 26.0977C194.758 26.0977 194.733 26.0977 194.733 26.0977V26.0723C194.656 26.0723 194.58 26.0723 194.529 26.0469C194.504 25.7168 194.504 25.2344 194.504 24.5488C194.504 23.9141 194.504 23.584 194.504 23.584C194.504 23.1016 194.504 22.8477 194.504 22.8477V22.5684C194.758 22.5684 195.19 22.5684 195.774 22.543C196.383 22.5176 196.84 22.4922 197.17 22.4922C197.856 22.4922 198.389 22.5176 198.82 22.543H199.201C199.201 22.6445 199.227 22.8984 199.227 23V23.7617V25.082V25.793V26.1992C198.947 26.1484 198.719 26.123 198.516 26.123H198.313H197.983H197.779C197.5 26.123 196.764 26.0977 196.459 26.0977H196.434H195.545H194.783ZM209.095 33.3848C208.536 33.207 207.978 32.7246 207.597 32.4707L207.114 32.0137L206.657 31.5566C206.581 31.4805 206.378 31.0234 206.226 31.0234C206.048 31.0742 205.794 31.4043 205.489 32.0137C205.185 32.623 205.032 33.0293 205.032 33.207C205.032 33.9434 205.54 34.6543 206.581 35.3906C207.622 36.127 208.714 36.5078 209.857 36.5332C209.933 36.5332 210.111 36.5586 210.136 36.5586C211.685 36.5586 212.853 36.2031 213.614 35.4922C214.554 34.6035 215.011 33.3848 215.011 31.7852C215.011 30.5664 214.706 29.5254 214.097 28.6367C213.894 28.3574 213.538 28.002 213.056 27.5449C212.624 27.1387 211.71 26.5547 210.364 25.793C209.882 25.4121 209.476 24.9551 209.146 24.3965C209.019 24.0664 208.943 23.7871 208.943 23.5586C208.943 22.5684 209.882 21.959 211.075 21.959C211.913 21.959 212.65 22.2129 213.31 22.6953C213.538 22.6953 213.741 22.2891 213.945 21.502C214.071 21.0195 214.122 20.6387 214.122 20.3594C214.122 20.1816 214.097 20.0547 214.046 20.0039C213.716 19.6484 213.132 19.3184 212.32 19.0391C211.507 18.7598 210.821 18.6074 210.237 18.6074C210.111 18.6074 209.958 18.6328 209.78 18.6582C208.739 18.8105 207.825 19.293 207.038 20.1055C206.251 20.8926 205.82 21.8574 205.718 22.9746V23.4062C205.718 24.4473 206.023 25.4629 206.632 26.4531C206.835 26.7832 207.114 27.0879 207.597 27.4941L208.054 27.9004C208.359 28.2051 208.638 28.4336 208.917 28.6113L211.025 30.1602C211.786 30.7695 212.167 31.4043 212.167 32.0898C212.167 32.9785 211.507 33.5625 210.364 33.5625C209.933 33.5625 209.527 33.5117 209.095 33.3848ZM217.541 36.127C217.541 36.3301 218.227 36.4316 219.573 36.4316C219.75 36.4316 220.055 36.457 220.131 36.457C220.36 36.457 220.487 36.3555 220.487 36.1777V32.2676C220.487 30.7695 220.487 29.7539 220.461 29.2715C220.487 29.2715 220.512 29.2461 220.512 29.1699C220.537 29.1445 220.563 29.1445 220.614 29.1445C220.969 29.0938 221.325 29.0684 221.705 29.0684C222.01 29.0684 222.416 29.0938 222.95 29.1191C223.483 29.1445 223.813 29.1699 223.991 29.1699H224.575H225.362H225.565C225.565 29.3477 225.641 29.5762 225.641 29.7539C225.641 30.1602 225.666 31.0488 225.742 32.3945C225.819 33.7402 225.844 34.6797 225.844 35.2129C225.844 35.4922 226.149 35.6445 226.758 35.6445C226.86 35.6445 227.215 35.6191 227.317 35.6191C228.104 35.5938 228.561 35.5176 228.688 35.3906C228.764 35.3145 228.688 34.9844 228.739 34.6543C228.739 33.3594 228.713 32.5469 228.662 32.2676L228.586 30.668C228.561 29.957 228.561 29.4238 228.561 29.0684L228.383 24.0918C228.383 23.9141 228.358 23.5078 228.358 23.3301V22.416C228.358 21.6035 228.358 20.9688 228.332 20.5371C228.307 20.1562 228.155 20.0801 227.748 20.0547C227.469 20.0293 226.58 19.9023 225.133 19.6738C223.686 19.4453 222.442 19.293 221.375 19.1914C220.309 19.0898 219.293 19.0391 218.303 19.0391H217.694C217.567 19.0391 217.516 19.3438 217.516 19.9785V20.7148C217.541 21.0703 217.541 21.3242 217.541 21.502V22.0859C217.516 22.8984 217.491 23.5078 217.491 23.9141V24.4219C217.491 24.7773 217.465 25.2852 217.44 25.9707C217.414 26.6309 217.414 27.1387 217.414 27.4688C217.414 28.332 217.44 29.7793 217.465 31.8359C217.516 33.8672 217.541 35.2891 217.541 36.127ZM220.817 26.0977C220.791 26.0977 220.766 26.0977 220.766 26.0977V26.0723C220.69 26.0723 220.614 26.0723 220.563 26.0469C220.537 25.7168 220.537 25.2344 220.537 24.5488C220.537 23.9141 220.537 23.584 220.537 23.584C220.537 23.1016 220.537 22.8477 220.537 22.8477V22.5684C220.791 22.5684 221.223 22.5684 221.807 22.543C222.416 22.5176 222.873 22.4922 223.203 22.4922C223.889 22.4922 224.422 22.5176 224.854 22.543H225.235C225.235 22.6445 225.26 22.8984 225.26 23V23.7617V25.082V25.793V26.1992C224.981 26.1484 224.752 26.123 224.549 26.123H224.346H224.016H223.813C223.534 26.123 222.797 26.0977 222.492 26.0977H222.467H221.578H220.817Z" fill="white"/>
</g>
</g>
</g>
<defs>
<filter id="filter0_i" x="8.46082" y="5.65967" width="236.685" height="46.0862" filterUnits="userSpaceOnUse" color-interpolation-filters="sRGB">
<feFlood flood-opacity="0" result="BackgroundImageFix"/>
<feBlend mode="normal" in="SourceGraphic" in2="BackgroundImageFix" result="shape"/>
<feColorMatrix in="SourceAlpha" type="matrix" values="0 0 0 0 0 0 0 0 0 0 0 0 0 0 0 0 0 0 127 0" result="hardAlpha"/>
<feOffset dy="-2"/>
<feComposite in2="hardAlpha" operator="arithmetic" k2="-1" k3="1"/>
<feColorMatrix type="matrix" values="0 0 0 0 0.369739 0 0 0 0 0.00588658 0 0 0 0 0.131393 0 0 0 0.602497 0"/>
<feBlend mode="normal" in2="shape" result="effect1_innerShadow"/>
</filter>
<filter id="filter1_dd" x="26.5562" y="13.7578" width="204.182" height="26.4355" filterUnits="userSpaceOnUse" color-interpolation-filters="sRGB">
<feFlood flood-opacity="0" result="BackgroundImageFix"/>
<feColorMatrix in="SourceAlpha" type="matrix" values="0 0 0 0 0 0 0 0 0 0 0 0 0 0 0 0 0 0 127 0"/>
<feOffset dx="1" dy="2"/>
<feGaussianBlur stdDeviation="0.5"/>
<feColorMatrix type="matrix" values="0 0 0 0 0.255049 0 0 0 0 0.0969617 0 0 0 0 0.161373 0 0 0 0.272475 0"/>
<feBlend mode="normal" in2="BackgroundImageFix" result="effect1_dropShadow"/>
<feColorMatrix in="SourceAlpha" type="matrix" values="0 0 0 0 0 0 0 0 0 0 0 0 0 0 0 0 0 0 127 0"/>
<feOffset dy="2"/>
<feColorMatrix type="matrix" values="0 0 0 0 0.545098 0 0 0 0 0.027451 0 0 0 0 0.164706 0 0 0 1 0"/>
<feBlend mode="normal" in2="effect1_dropShadow" result="effect2_dropShadow"/>
<feBlend mode="normal" in="SourceGraphic" in2="effect2_dropShadow" result="shape"/>
</filter>
<linearGradient id="paint0_linear" x1="14.2742" y1="7.67695" x2="14.2742" y2="51.4993" gradientUnits="userSpaceOnUse">
<stop stop-color="#FFD800"/>
<stop offset="0.547936" stop-color="#FFB500"/>
<stop offset="1" stop-color="#E79822"/>
</linearGradient>
<clipPath id="clip0">
<rect width="255" height="55.7886" fill="white"/>
</clipPath>
</defs>
</svg>
