<svg width="165" height="61" viewBox="0 0 165 61" fill="none" xmlns="http://www.w3.org/2000/svg">
<g clip-path="url(#clip0)">
<g filter="url(#filter0_d)">
<path fill-rule="evenodd" clip-rule="evenodd" d="M20.5783 3.79536C11.8136 5.26459 1.6333 11.9059 0.13051 28.377C-1.37228 44.8481 10.3912 55.186 20.5783 57.4937C30.7655 59.8013 35.9852 60.3744 64.3574 60.7505C77.0161 60.9183 93.3543 60.7819 103.354 60.7505C115.766 60.7114 131.184 59.2726 136.95 58.711C149.448 57.4937 161.266 50.2341 163.647 39.5062C166.028 28.7783 163.647 21.8089 158.838 14.0288C154.03 6.24859 140.845 2.89375 129.124 2.05899C117.404 1.22423 103.744 0.212706 100.474 0.212706C97.2041 0.212706 65.4232 -0.265882 50.9483 0.212706C36.4734 0.691294 29.343 2.32613 20.5783 3.79536Z" fill="white"/>
</g>
<g filter="url(#filter1_di)">
<path fill-rule="evenodd" clip-rule="evenodd" d="M25.4653 8.42509C17.3301 9.6388 7.88098 15.1251 6.48613 28.7317C5.09127 42.3382 16.0098 50.8782 25.4653 52.7846C34.9208 54.6909 39.7656 55.1643 66.1 55.475C77.8495 55.6136 93.0143 55.501 102.295 55.475C113.816 55.4427 128.127 54.2541 133.479 53.7902C145.079 52.7846 156.049 46.7875 158.258 37.9253C160.468 29.0632 158.258 23.3059 153.795 16.8788C149.332 10.4517 137.094 7.68029 126.215 6.9907C115.336 6.30112 102.658 5.46551 99.6226 5.46551C96.5875 5.46551 67.0893 5.07015 53.654 5.46551C40.2187 5.86086 33.6005 7.21138 25.4653 8.42509Z" fill="url(#paint0_linear)"/>
</g>
<mask id="mask0" mask-type="alpha" maskUnits="userSpaceOnUse" x="6" y="5" width="154" height="51">
<path fill-rule="evenodd" clip-rule="evenodd" d="M25.4653 8.42509C17.3301 9.6388 7.88098 15.1251 6.48613 28.7317C5.09127 42.3382 16.0098 50.8782 25.4653 52.7846C34.9208 54.6909 39.7656 55.1643 66.1 55.475C77.8496 55.6136 93.0143 55.501 102.295 55.475C113.816 55.4427 128.127 54.2541 133.479 53.7902C145.079 52.7846 156.049 46.7875 158.258 37.9253C160.468 29.0632 158.258 23.3059 153.795 16.8788C149.332 10.4517 137.094 7.68029 126.215 6.9907C115.336 6.30112 102.658 5.46551 99.6226 5.46551C96.5875 5.46551 67.0893 5.07015 53.654 5.46551C40.2187 5.86086 33.6005 7.21138 25.4653 8.42509Z" fill="white"/>
</mask>
<g mask="url(#mask0)">
<path fill-rule="evenodd" clip-rule="evenodd" d="M5.45569 23.804C5.45569 23.804 8.2309 11.3851 17.5989 8.43769C26.9669 5.49025 31.6705 5.34544 40.6395 4.43597C49.6085 3.52649 81.215 3.52649 85.8712 3.52649C90.5275 3.52649 124.369 4.60725 128.07 5.17903C131.771 5.75082 141.107 6.44605 148.077 10.5136C155.048 14.5812 156.397 20.9775 156.397 20.9775C156.397 20.9775 147.789 15.0552 140.405 12.7958C133.02 10.5363 116.492 11.1703 111.594 11.1703C106.695 11.1703 90.3972 11.1703 75.7791 11.1703C61.161 11.1703 51.8379 10.5136 44.3302 10.5136C36.8225 10.5136 27.1129 12.5456 22.2583 13.4836C17.4036 14.4216 5.45569 23.804 5.45569 23.804Z" fill="white" fill-opacity="0.436113"/>
<path fill-rule="evenodd" clip-rule="evenodd" d="M159.125 31.7387C159.125 31.7387 156.85 44.1069 145.712 50.0866C134.575 56.0663 132.53 54.1355 123.662 54.1355C114.793 54.1355 118.264 55.5427 108.413 55.5427C98.5606 55.5427 82.0546 55.5427 77.3955 55.5427C72.7364 55.5427 58.3251 54.7835 52.8571 54.7835C47.3891 54.7835 38.1542 53.3248 35.0643 53.3248C31.9744 53.3248 21.8593 51.9321 14.8847 47.6234C7.91003 43.3148 6.36502 32.8089 6.36502 32.8089C6.36502 32.8089 15.5959 38.7541 22.9845 41.1475C30.373 43.5408 46.3998 43.0965 51.3011 43.0965C56.2024 43.0965 72.8125 42.4786 87.4395 42.4786C102.066 42.4786 112.532 42.4786 120.044 42.4786C127.557 42.4786 137.174 41.0155 142.032 40.0218C146.889 39.0282 159.125 31.7387 159.125 31.7387Z" fill="#D26114" fill-opacity="0.433481"/>
<path opacity="0.84854" fill-rule="evenodd" clip-rule="evenodd" d="M148.274 17.4143C149.961 18.2259 150.278 19.3951 151.605 19.1152C152.932 18.8353 151.831 16.7802 150.688 15.7386C149.544 14.697 147.655 14.1501 145.68 13.7187C143.706 13.2874 143.467 14.7371 143.467 14.7371C143.467 14.7371 143.845 15.3972 145.291 16.0774C146.737 16.7576 146.587 16.6026 148.274 17.4143Z" fill="white"/>
<path opacity="0.668457" fill-rule="evenodd" clip-rule="evenodd" d="M16.0605 42.8838C14.7169 43.0725 15.8644 44.7223 16.9308 45.8391C17.9972 46.956 17.7966 46.7494 19.7355 47.3143C21.6743 47.8792 22.0163 46.4496 22.0163 46.4496C22.0163 46.4496 21.686 45.7654 20.292 44.9884C18.8979 44.2113 17.4041 42.6951 16.0605 42.8838Z" fill="white"/>
<path opacity="0.84854" fill-rule="evenodd" clip-rule="evenodd" d="M138.652 11.9653C138.652 11.9653 137.831 11.8017 137.603 12.2724C137.375 12.7432 137.319 13.0984 137.954 13.2026C138.589 13.3068 138.951 13.457 139.434 13.5362C139.916 13.6154 139.976 13.2908 139.976 13.2908C139.976 13.2908 140.007 12.7647 139.691 12.4481C139.375 12.1314 138.652 11.9653 138.652 11.9653Z" fill="white"/>
<g filter="url(#filter2_ddi)">
<path d="M30.7562 36.5371C30.7562 36.7656 30.7562 37.1211 30.7816 37.6543C30.8069 38.1875 30.8323 38.543 30.8323 38.7461C30.8577 38.8223 31.2132 38.873 31.8987 38.9492C32.0257 38.9492 32.6859 38.9746 32.9652 38.9746C33.4476 38.9746 33.7269 38.9238 33.803 38.8477C33.8538 38.7969 33.8792 38.5938 33.8792 38.2637C33.8792 38.0605 33.8538 37.5781 33.8538 37.4512C33.8538 36.9434 33.803 36.207 33.7269 35.2422C33.6507 34.252 33.6253 33.5156 33.6253 33.0078V32.627V31.5605V30.7988C34.0823 30.748 34.5648 30.7227 35.0472 30.7227C35.2757 30.7227 35.9612 30.748 36.2405 30.748C36.5198 30.748 36.9261 30.7227 37.4593 30.6973H38.2972C38.3734 30.6973 38.4241 30.4941 38.4241 30.0625C38.4241 29.7324 38.3734 28.8184 38.3734 28.6914V28.3613C38.3734 28.082 38.348 28.0566 38.1194 28.0566H37.9417H36.1644H35.0726H33.8538C33.7777 28.0566 33.6507 28.082 33.5237 28.1074C33.4984 27.9551 33.473 27.7012 33.473 27.3711V26.6855C33.473 26.1016 33.3968 25.4414 33.3968 24.8574C33.3968 24.5781 33.3968 24.4004 33.3714 24.2734C33.3968 24.248 33.473 24.248 33.5491 24.248C33.7777 24.2227 34.1331 24.2227 34.6155 24.2227H35.3011C35.7073 24.2227 36.6722 24.1719 37.1038 24.1719H37.2054H38.3226C38.4241 24.1719 38.4749 23.9434 38.4749 23.4863C38.4749 23.2578 38.4495 22.5215 38.4495 22.293C38.4495 21.6074 38.4241 21.5059 38.221 21.5059C38.1448 21.5059 37.9417 21.5312 37.8148 21.5312C37.5355 21.5312 36.8245 21.5059 35.6819 21.4551C34.5394 21.4043 33.8284 21.3789 33.4984 21.3789H32.3304H30.7054C30.6038 21.3789 30.553 21.6328 30.553 22.1406C30.553 22.3691 30.5784 23.0801 30.5784 23.3594C30.5784 23.4609 30.5784 23.5117 30.5784 23.5117C30.5784 24.4004 30.5784 24.832 30.5784 24.832V26.584V26.9141C30.5784 28.0312 30.6038 29.6309 30.6546 31.7129C30.7308 33.7695 30.7562 35.3945 30.7562 36.5371ZM49.9073 21.4297C49.1202 21.4297 46.3527 21.5566 41.5538 21.7852C41.3761 21.8105 41.2745 21.9375 41.2745 22.1406C41.2745 22.2168 41.2745 22.293 41.2999 22.3184C41.2745 22.8516 41.2491 23.5625 41.2491 24.502C41.2491 25.543 41.3253 26.7109 41.4523 28.0059C41.6046 29.4023 41.757 31.3828 41.8839 33.9473L42.1632 38.543C42.1632 39.0762 43.255 39 43.839 39C44.2452 39.0254 44.5753 39.0508 44.8038 39.0508C45.0831 39.0508 45.5148 39.0254 46.0734 39C46.6573 38.9746 47.089 38.9746 47.3937 38.9746H47.8507C48.003 39 48.257 39 48.587 39C48.8663 39 49.6027 38.9746 49.882 38.9746C50.2374 38.9746 50.4913 38.9746 50.6437 39C50.923 39 51.0499 38.4668 51.0499 37.4258V36.8926V36.4863C51.0499 35.877 50.9737 35.5723 50.8214 35.5723C50.212 35.5723 49.1964 35.5469 47.7491 35.4961C46.3273 35.4453 45.3116 35.4199 44.7277 35.4199C44.7277 35.1914 44.753 34.7344 44.753 34.5566C44.753 33.668 44.7023 32.1953 44.7023 31.2812C45.1339 31.332 45.5909 31.3574 46.0734 31.3574C46.4034 31.3574 47.1905 31.332 47.4952 31.332C47.6222 31.332 48.0538 31.3574 48.2316 31.3574H48.4601C48.6378 31.3574 49.1456 31.332 49.3487 31.332C49.628 31.332 49.8058 31.332 49.9073 31.3574C49.9835 31.3574 50.0597 31.0781 50.1359 30.5449C50.212 29.9863 50.2374 29.4785 50.2374 29.0469C50.2374 28.8438 50.2628 28.5137 50.2628 28.4883C50.2628 28.3359 50.212 28.2598 50.0851 28.2598C50.0089 28.2598 49.755 28.2852 49.628 28.2852C49.5265 28.2852 49.4757 28.2852 49.4757 28.2852C48.9933 28.2598 47.9523 28.2598 46.3273 28.2598C46.0226 28.2598 45.8702 28.2598 45.8702 28.2598C45.7433 28.2598 45.6671 28.2598 45.6671 28.2598C45.1847 28.2598 44.7277 28.2852 44.3214 28.3359C44.296 28.209 44.2706 28.1074 44.2706 28.0312V27.6758V26.1777C44.2706 25.7207 44.296 25.1367 44.3468 24.4512C44.5499 24.4004 45.4894 24.3242 47.1652 24.2227C47.5968 24.2227 48.6632 24.1211 49.0695 24.1211C49.2726 24.1211 50.0851 24.0957 50.2882 24.0957C50.3136 23.4609 50.3136 23.1309 50.3136 23.1309V22.8262C50.3136 22.5977 50.3644 22.0137 50.3644 21.8867C50.3644 21.582 50.2374 21.4297 49.9835 21.4297H49.9073ZM56.6425 22.2422C56.6425 22.1152 56.3886 22.0391 55.8808 22.0391H55.4237H55.2968L53.9257 22.0137C53.8495 22.0137 53.8241 22.623 53.8241 23.8672V24.3242V24.5527C53.8241 24.7559 53.8495 25.2129 53.8495 25.3906V26.1016C53.8495 26.5332 53.8749 27.498 53.8749 27.8789C53.8749 28.2852 53.8749 28.8945 53.8495 29.6816V31.5098C53.8495 31.8398 53.8749 32.7285 53.8749 33.1094C53.8749 33.4648 53.8749 33.9727 53.9003 34.6582C53.9257 35.3184 53.9511 35.8262 53.9511 36.207V38.1367C53.9511 38.2637 54.9413 38.4414 56.3378 38.5684C57.0487 38.6191 57.4042 38.6445 57.4296 38.6445C57.9374 38.7207 58.3437 38.7715 58.623 38.7715C58.9277 38.7715 59.3847 38.7969 60.0194 38.8223L61.4667 38.8984C61.873 38.9238 62.6347 38.9238 63.7519 38.9238C63.955 39.0254 63.9296 38.4668 64.0058 38.0859C64.0819 37.7051 64.1073 36.791 64.1327 36.6133C64.1581 36.334 64.2089 35.9023 64.2089 35.8008C64.2089 35.6738 64.1073 35.5977 63.9296 35.5977C63.2187 35.5977 62.8632 35.5977 62.8632 35.5977C61.0605 35.5977 59.9179 35.5723 59.4862 35.5469L56.8964 35.3691C56.7441 33.1602 56.6679 30.6211 56.6679 27.7773V27.2441C56.6679 26.8633 56.6679 26.3301 56.6425 25.6445V24.0449C56.6425 23.7656 56.6425 23.6387 56.6425 23.6387V22.2422ZM73.0769 24.4258H73.8132C73.8894 24.248 73.9148 24.0195 73.9148 23.7402V23.1309V21.8867V21.709C73.9148 21.4043 73.8894 21.2266 73.864 21.1504C73.737 21.0996 73.5339 21.0742 73.2546 21.0742H72.9753L69.2175 21.2266L65.612 21.3535H64.7487H64.114C63.8855 21.3535 63.1745 21.3789 62.946 21.3789C62.5652 21.3789 62.3874 21.4551 62.3874 21.6074V21.8359C62.3874 22.1406 62.4128 22.8516 62.4128 22.9785C62.4128 23.6133 62.4382 24.1211 62.489 24.502C62.5144 24.6035 62.5905 24.6543 62.7429 24.6543C62.8444 24.6543 63.2761 24.6289 63.5046 24.6289C63.7077 24.6543 64.0378 24.6543 64.4694 24.6543H65.0027C66.653 24.6543 65.2312 24.6035 66.6784 24.6035H66.8562C66.8562 24.7812 66.9069 25.3652 66.9069 25.4922C66.9069 28.2598 67.0085 31.1289 67.1862 34.7598C67.2624 36.5625 67.3386 37.8828 67.364 38.7715C67.364 38.9492 67.8464 39.0254 68.7859 39.0254C69.3952 39.0254 69.903 39 70.3093 38.9492C70.4362 38.9238 70.5124 38.6953 70.5124 38.3145C70.5124 38.0605 70.487 37.7051 70.4616 37.2734C70.3093 33.8711 70.2077 31.1797 70.1569 29.1992C70.1569 28.8691 70.1316 28.3105 70.0808 27.5742C70.03 26.8379 70.0046 26.2539 70.0046 25.8223C70.0046 25.6445 69.9792 25.1113 69.9792 24.8066V24.4512C70.1569 24.4512 71.3757 24.4258 72.8991 24.4258H73.0769ZM78.2632 22.1914C78.2886 22.75 78.5933 23.0547 79.1773 23.1055C79.8882 23.0293 80.2437 22.5977 80.2437 21.8359C80.2437 21.8105 80.2183 21.6074 80.2183 21.582C80.0405 21.0996 79.7105 20.8711 79.2027 20.8711C79.0249 20.8711 78.8726 20.9219 78.7202 20.998C78.4917 21.1504 78.3394 21.5566 78.2632 22.1914ZM82.5542 20.8457C82.0718 20.8457 81.5386 21.252 81.4624 21.6582C81.437 21.8359 81.4116 21.9629 81.4116 22.0391C81.4116 22.8008 81.7925 23.207 82.5288 23.2578H82.5542C83.1636 23.2578 83.5952 22.7754 83.6968 22.2422C83.7222 22.166 83.7222 22.0645 83.7222 21.9375C83.7222 21.252 83.2652 20.8457 82.5542 20.8457ZM81.3101 23.8418C81.1577 23.8164 80.9292 23.8164 80.6499 23.8164C79.2534 23.8164 78.0347 24.2988 76.9683 25.2637C76.4351 25.7461 75.9527 26.3809 75.5718 27.168C75.0386 28.2598 74.7593 29.3516 74.7593 30.4434C74.7593 30.6465 74.8609 31.2051 74.8609 31.2812C75.1909 33.5918 76.2066 35.3184 77.9585 36.4355C79.228 37.2227 80.4468 37.6289 81.6402 37.6289C83.6968 37.6289 85.3726 36.4355 86.6167 34.0742C87.0991 33.1348 87.3277 32.1953 87.3277 31.2305C87.3277 30.1895 87.0737 29.1484 86.5659 28.1074C85.9566 26.9141 85.1948 25.9746 84.2554 25.2891C83.2398 24.4004 82.2495 23.918 81.3101 23.8418ZM83.8237 30.5195C83.8491 30.7227 83.8745 30.9004 83.8745 31.0273C83.8745 31.4336 83.7984 31.8652 83.6714 32.3223L83.3159 32.9316C82.6812 34.0488 81.9448 34.6074 81.1577 34.6074C80.3198 34.6074 79.5073 34.0488 78.7456 32.9316C78.3648 32.3984 78.0601 31.5352 77.8316 30.3672C77.8062 30.0625 77.7808 29.834 77.7808 29.6816C77.7808 27.9551 78.8218 26.9141 80.2183 26.9141C80.853 26.9141 81.4878 27.1426 82.1226 27.5742C83.062 28.2598 83.646 29.25 83.8237 30.5195ZM90.2288 21.7598C90.0003 21.7598 89.8734 21.8359 89.8734 22.0137C89.8734 22.1406 89.848 22.9277 89.8226 24.3496C89.7972 25.7715 89.7718 26.6348 89.7718 26.9648C89.7718 27.0918 89.7972 27.4727 89.7972 27.5996L89.8226 28.0312C89.9495 32.627 90.0257 35.3691 90.0765 36.3086V36.6133V37.6035C90.1019 38.1621 90.1019 38.5176 90.1273 38.6445C90.2542 38.8223 90.6351 38.9238 91.3206 38.9238C91.5491 38.9238 91.8792 38.9238 92.3362 38.8984C92.7933 38.873 93.1234 38.8477 93.3265 38.8477H93.4788L93.8851 38.873C96.348 38.8984 97.8968 38.9746 98.5316 39.0508H98.6585C99.3948 39.0508 99.471 38.3145 99.471 37.5527V37.3242V36.6641C99.471 36.4355 99.4964 36.0039 99.4964 35.9277C99.4964 35.7246 98.1507 35.623 95.4847 35.623H93.6566L93.2757 35.6484C93.2503 35.6484 93.1487 35.623 93.1234 35.623C92.6917 31.6875 92.4886 28.3613 92.4886 25.6699V25.1621C92.4632 24.8828 92.4632 24.4258 92.4632 23.8164V22.3691C92.4378 22.1914 92.2347 22.0391 91.8792 21.9121H91.803L90.9905 21.8359C90.6097 21.8105 90.3812 21.7852 90.305 21.7598H90.2288ZM101.153 21.8359H100.341C100.163 21.8359 99.7062 21.8105 99.5792 21.8105C98.8683 21.8105 98.9952 22.0391 98.9444 22.9531C98.9444 23.4863 98.8937 23.5117 98.8937 23.9434C98.8937 24.2227 98.9191 24.5527 98.9444 24.8828C99.1222 25.0605 99.5792 25.1621 100.316 25.1621H101.103C101.534 25.1621 102.017 25.1621 102.525 25.1875V25.2129C102.525 25.4414 102.499 26.1016 102.499 26.3301C102.499 26.7871 102.474 27.498 102.448 28.4375C102.448 28.9199 102.423 29.9863 102.423 30.4688V30.7988V31.9922V32.5V38.4414C102.423 38.6953 102.601 38.8223 102.956 38.8223H103.388H103.591H103.692C103.997 38.8223 104.734 38.7207 104.911 38.7207C105.495 38.6699 105.495 38.6191 105.495 38.3906V38.2129C105.495 37.7305 105.47 36.791 105.419 35.3945C105.368 33.9727 105.343 33.1348 105.343 32.8809V31.7637V31.0527C105.343 30.6465 105.368 29.6562 105.368 29.25C105.368 28.8438 105.394 27.8027 105.394 27.3711V25.2891C105.394 25.0859 105.571 24.9844 105.901 24.9844C106.003 24.9844 106.257 25.0098 106.333 25.0098C107.247 25.0098 108.567 24.959 109.304 24.959C109.355 24.959 109.38 24.8066 109.38 24.502C109.38 24.3496 109.38 24.1465 109.355 23.918V23.5371V22.8008C109.355 22.6992 109.38 22.1152 109.38 22.0137C109.38 21.8867 109.151 21.8359 108.72 21.8359C108.441 21.8359 107.628 21.8867 107.4 21.8867C106.816 21.8867 105.089 21.8613 102.245 21.8359H101.153ZM119.518 16.7832C119.238 17.1641 118.197 18.1035 117.842 18.459L116.547 19.7285C116.039 20.2363 115.785 20.5664 115.785 20.7188C115.785 20.8711 116.268 20.9473 117.258 20.9473C117.664 20.9473 118.045 20.9219 118.426 20.8965C118.502 20.8711 118.68 20.9219 118.705 20.9219C118.781 20.9219 118.857 20.8965 118.934 20.8457C119.264 20.5918 119.771 20.1602 120.508 19.5254C121.168 19.0176 121.549 18.6367 121.676 18.3574C121.676 18.2051 121.422 17.9512 120.939 17.6211C120.203 17.0371 119.746 16.7578 119.568 16.7578C119.543 16.7578 119.543 16.7578 119.518 16.7832ZM114.414 21.5059C114.033 21.4805 113.728 21.4805 113.5 21.4805C112.637 21.4805 112.205 21.5312 112.205 21.6582V25.8984C112.205 26.3301 112.18 27.0156 112.154 27.9043C112.129 28.793 112.129 29.4531 112.129 29.9102V31.8906C112.129 32.0684 112.103 32.8555 112.053 34.2773C112.027 35.6738 112.002 36.6895 112.002 37.2734C112.002 37.8828 112.027 38.2129 112.053 38.2383C112.307 38.4922 114.516 38.6191 118.705 38.6191H119.822H120.203H120.838C120.99 38.6191 121.295 38.5938 121.726 38.5684C121.879 38.5684 122.768 38.5176 122.844 38.4414C122.92 38.3652 122.971 38.1113 122.971 37.6797C122.971 37.5527 122.945 37.0449 122.894 36.1816V35.9277C122.894 35.4961 122.869 35.2676 122.793 35.2422C122.564 35.1406 122.285 35.0898 121.904 35.0898C121.676 35.0898 120.939 35.1406 120.66 35.1406H120.635C117.893 35.0137 116.09 34.9121 115.252 34.8613C115.277 34.582 115.277 33.998 115.303 33.084L115.379 30.7988C116.318 30.9258 117.613 31.002 119.289 31.002H119.365H120.178H120.279C120.305 31.002 120.838 30.9258 120.863 30.9258C120.939 30.9258 120.99 30.7734 120.99 30.4941C120.99 30.2656 120.939 29.8848 120.863 29.3516C120.787 28.8184 120.762 28.5391 120.762 28.5137C120.736 28.3359 120.482 28.2598 120 28.2598H119.365H119.213C117.766 28.209 116.471 28.1328 115.353 28.0059C115.353 27.9805 115.328 27.8027 115.328 27.7266C115.328 27.5742 115.328 27.2695 115.353 26.8379C115.379 26.4062 115.379 26.1016 115.379 25.9238V25.0859C115.582 25.0859 116.166 25.0352 116.394 25.0352C116.775 25.0352 117.359 25.0352 118.096 25.0605H119.771C120.076 25.0605 120.787 25.0352 121.066 25.0352C121.193 25.0352 121.447 25.0352 121.853 25.0098C122.285 24.9844 122.539 24.9844 122.641 24.9844C122.818 24.9844 122.92 24.7051 122.92 24.1211C122.92 23.9434 122.894 23.6387 122.869 23.2578C122.844 22.8516 122.818 22.623 122.818 22.5469C122.793 21.709 122.742 21.6836 122.006 21.6582C117.943 21.5566 115.633 21.5059 115.074 21.5059H114.414ZM131.559 34.7598V34.7852V34.9375C131.559 35.6992 131.153 36.0801 130.341 36.0801C130.112 36.0801 129.807 36.0293 129.452 35.9023C129.02 35.6992 128.665 35.4199 128.411 35.0898C128.259 34.8359 127.776 34.1504 126.964 33.0586C126.481 33.2109 126.1 33.4395 125.846 33.7695C125.567 34.125 125.11 34.4551 125.11 34.6074C125.339 35.2422 125.999 36.2832 127.04 37.7305C127.852 38.8223 128.969 39.3809 130.391 39.3809C131.28 39.3809 132.118 39.127 132.88 38.6191C133.87 37.7051 134.428 36.8164 134.555 35.9277C134.632 35.4961 134.657 35.1406 134.657 34.8867C134.657 34.3281 134.581 33.8711 134.454 33.5156C134.276 33.0332 134.175 32.6777 133.971 32.3477C133.768 31.9668 133.768 31.8398 133.489 31.5098C133.21 31.1289 133.26 31.1543 132.854 30.7227L132.473 30.2402C132.346 30.0625 132.016 29.7832 131.534 29.377C131.051 28.9707 130.671 28.6914 130.442 28.5645C129.731 28.1328 129.477 27.9805 128.944 27.4727C128.411 26.9648 128.157 26.3555 128.157 25.5684V25.2129C128.233 24.8574 128.462 24.6035 128.868 24.4512C129.147 24.3496 129.426 24.2988 129.706 24.2988C130.391 24.2988 131.229 24.6289 132.219 25.2891C132.448 25.4668 133.362 26.1016 133.54 26.3555C133.565 26.3809 133.591 26.3809 133.641 26.3809C133.87 26.3809 134.175 26.0508 134.581 25.3906C134.987 24.7051 135.19 24.248 135.19 23.9688C135.19 23.8418 134.759 23.4609 133.921 22.7754C133.692 22.5977 133.311 22.3184 132.803 21.9883C132.092 21.5566 131.102 21.3535 129.858 21.3535C129.02 21.3535 128.335 21.4551 127.801 21.6836C125.897 22.4707 125.186 23.5371 125.186 25.9746C125.186 27.7266 126.05 29.25 127.243 30.0879C127.471 30.2656 127.852 30.4941 128.335 30.7988C128.817 31.0781 129.198 31.332 129.452 31.5352C129.706 31.7129 129.985 31.9668 130.315 32.2969C131.001 32.9062 131.331 33.7188 131.509 34.7344L131.559 34.7598Z" fill="white"/>
</g>
</g>
</g>
<defs>
<filter id="filter0_d" x="0" y="0" width="164.58" height="62.8325" filterUnits="userSpaceOnUse" color-interpolation-filters="sRGB">
<feFlood flood-opacity="0" result="BackgroundImageFix"/>
<feColorMatrix in="SourceAlpha" type="matrix" values="0 0 0 0 0 0 0 0 0 0 0 0 0 0 0 0 0 0 127 0"/>
<feOffset dy="2"/>
<feColorMatrix type="matrix" values="0 0 0 0 0.0117647 0 0 0 0 0.439216 0 0 0 0 0.494118 0 0 0 0.337806 0"/>
<feBlend mode="normal" in2="BackgroundImageFix" result="effect1_dropShadow"/>
<feBlend mode="normal" in="SourceGraphic" in2="effect1_dropShadow" result="shape"/>
</filter>
<filter id="filter1_di" x="-3.63501" y="4.28979" width="164.76" height="62.253" filterUnits="userSpaceOnUse" color-interpolation-filters="sRGB">
<feFlood flood-opacity="0" result="BackgroundImageFix"/>
<feColorMatrix in="SourceAlpha" type="matrix" values="0 0 0 0 0 0 0 0 0 0 0 0 0 0 0 0 0 0 127 0"/>
<feOffset dx="-4" dy="5"/>
<feGaussianBlur stdDeviation="3"/>
<feColorMatrix type="matrix" values="0 0 0 0 0.687048 0 0 0 0 0.527877 0 0 0 0 0.138554 0 0 0 0.46139 0"/>
<feBlend mode="normal" in2="BackgroundImageFix" result="effect1_dropShadow"/>
<feBlend mode="normal" in="SourceGraphic" in2="effect1_dropShadow" result="shape"/>
<feColorMatrix in="SourceAlpha" type="matrix" values="0 0 0 0 0 0 0 0 0 0 0 0 0 0 0 0 0 0 127 0" result="hardAlpha"/>
<feOffset dy="-2"/>
<feComposite in2="hardAlpha" operator="arithmetic" k2="-1" k3="1"/>
<feColorMatrix type="matrix" values="0 0 0 0 0.416268 0 0 0 0 0.278893 0 0 0 0 0.0201531 0 0 0 0.602497 0"/>
<feBlend mode="normal" in2="shape" result="effect2_innerShadow"/>
</filter>
<filter id="filter2_ddi" x="30.5531" y="16.7578" width="106.637" height="25.623" filterUnits="userSpaceOnUse" color-interpolation-filters="sRGB">
<feFlood flood-opacity="0" result="BackgroundImageFix"/>
<feColorMatrix in="SourceAlpha" type="matrix" values="0 0 0 0 0 0 0 0 0 0 0 0 0 0 0 0 0 0 127 0"/>
<feOffset dx="1" dy="2"/>
<feGaussianBlur stdDeviation="0.5"/>
<feColorMatrix type="matrix" values="0 0 0 0 0.517647 0 0 0 0 0.289096 0 0 0 0 0.0431373 0 0 0 0.272475 0"/>
<feBlend mode="normal" in2="BackgroundImageFix" result="effect1_dropShadow"/>
<feColorMatrix in="SourceAlpha" type="matrix" values="0 0 0 0 0 0 0 0 0 0 0 0 0 0 0 0 0 0 127 0"/>
<feOffset dy="2"/>
<feColorMatrix type="matrix" values="0 0 0 0 0.698039 0 0 0 0 0.396078 0 0 0 0 0.0745098 0 0 0 1 0"/>
<feBlend mode="normal" in2="effect1_dropShadow" result="effect2_dropShadow"/>
<feBlend mode="normal" in="SourceGraphic" in2="effect2_dropShadow" result="shape"/>
<feColorMatrix in="SourceAlpha" type="matrix" values="0 0 0 0 0 0 0 0 0 0 0 0 0 0 0 0 0 0 127 0" result="hardAlpha"/>
<feOffset dy="1"/>
<feComposite in2="hardAlpha" operator="arithmetic" k2="-1" k3="1"/>
<feColorMatrix type="matrix" values="0 0 0 0 1 0 0 0 0 1 0 0 0 0 1 0 0 0 0.722345 0"/>
<feBlend mode="normal" in2="shape" result="effect3_innerShadow"/>
</filter>
<linearGradient id="paint0_linear" x1="6.36499" y1="5.28979" x2="6.36499" y2="55.5428" gradientUnits="userSpaceOnUse">
<stop stop-color="#FF476D"/>
<stop offset="0.97803" stop-color="#D01138"/>
</linearGradient>
<clipPath id="clip0">
<rect width="164.58" height="60.8326" fill="white"/>
</clipPath>
</defs>
</svg>
