<svg viewBox="0 0 62 60" fill="none" xmlns="http://www.w3.org/2000/svg">
<g filter="url(#filter0_di)">
<path fill-rule="evenodd" clip-rule="evenodd" d="M20.8869 8.94341C7.10338 14.1691 7.77451 27.3435 7.77451 32.692C7.77451 38.0406 12.1443 52.4809 32.1488 52.4809C42.0606 52.4809 52.0484 48.7127 54.5031 38.7854C56.9578 28.8581 57.6923 18.5637 50.5525 12.7848C43.4128 7.00587 34.6704 3.71771 20.8869 8.94341Z" fill="url(#paint0_linear)"/>
</g>
<mask id="mask0" mask-type="alpha" maskUnits="userSpaceOnUse" x="7" y="6" width="50" height="47">
<path fill-rule="evenodd" clip-rule="evenodd" d="M20.8869 8.94341C7.10338 14.1691 7.77451 27.3435 7.77451 32.692C7.77451 38.0406 12.1443 52.4809 32.1488 52.4809C42.0606 52.4809 52.0484 48.7127 54.5031 38.7854C56.9578 28.8581 57.6923 18.5637 50.5525 12.7848C43.4128 7.00587 34.6704 3.71771 20.8869 8.94341Z" fill="white"/>
</mask>
<g mask="url(#mask0)">
<path opacity="0.693197" fill-rule="evenodd" clip-rule="evenodd" d="M7.76484 24.0045C7.76484 24.0045 13.5882 0.200743 20.5065 1.90585C27.4249 3.61096 45.4823 8.06142 50.6181 9.32718C55.7538 10.5929 63.1816 20.2607 63.1816 20.2607C63.1816 20.2607 52.5694 43.0271 55.9163 35.872C59.2631 28.717 48.6267 18.4161 48.3743 18.223C41.0063 12.5835 37.5762 11.0031 26.4914 11.218C15.4066 11.4328 7.76484 24.0045 7.76484 24.0045Z" fill="white" fill-opacity="0.436113"/>
<path fill-rule="evenodd" clip-rule="evenodd" d="M55.3816 38.0068C55.3816 38.0068 47.0731 61.0785 40.3729 58.6679C33.6728 56.2573 16.1848 49.9654 11.2111 48.1759C6.23736 46.3864 -0.127421 36.0041 -0.127421 36.0041C-0.127421 36.0041 12.834 14.459 8.74889 21.2291C4.66375 27.9991 14.1527 39.3425 14.3833 39.5607C21.1145 45.9305 24.3588 47.8567 35.4056 48.7884C46.4524 49.7201 55.3816 38.0068 55.3816 38.0068Z" fill="#921738" fill-opacity="0.589844"/>
<path opacity="0.84854" fill-rule="evenodd" clip-rule="evenodd" d="M45.7514 17.0983C43.8574 15.955 44.0354 16.1349 42.4136 15.1696C41.3323 14.526 40.6332 13.9685 40.316 13.497C40.3839 12.6214 41.1383 12.4667 42.5792 13.0327C44.7406 13.8818 46.8231 14.8208 48.1593 16.0591C49.4955 17.2975 50.8938 19.4819 49.502 19.4486C48.1102 19.4153 47.6454 18.2417 45.7514 17.0983Z" fill="white"/>
<path opacity="0.84854" fill-rule="evenodd" clip-rule="evenodd" d="M36.2346 11.0861C36.8094 11.1387 37.2348 11.2862 37.5109 11.5288C37.787 11.7713 37.9393 12.1312 37.968 12.6087C37.9544 12.9086 37.7572 13.0553 37.3764 13.0487C36.8051 13.0388 36.3626 12.9091 35.6111 12.896C34.8595 12.883 34.8707 12.3925 35.0642 11.7115C35.1931 11.2575 35.5833 11.049 36.2346 11.0861Z" fill="white"/>
<path opacity="0.582659" fill-rule="evenodd" clip-rule="evenodd" d="M32.8723 21.9411C30.631 19.4104 26.6936 16.3909 26.6936 16.3909C26.6936 16.3909 24.2134 15.7214 22.652 16.3909C21.0906 17.0604 19.8232 19.0443 20.2826 20.5587C20.3434 20.7589 20.3941 20.94 20.4411 21.1077C20.7496 22.2089 20.8966 22.7337 22.652 24.2922C23.4847 25.0315 24.906 26.61 26.2903 28.2114C23.4585 31.0511 18.5406 37.0033 22.4014 40.6208C25.4251 43.4538 30.211 38.9285 33.0131 35.6725C36.2213 38.6216 41.3246 42.4963 43.8719 40.0895C47.4697 36.6902 41.9368 31.7221 39.4496 29.4888C39.2531 29.3123 39.0755 29.1529 38.923 29.0127C38.8667 28.961 38.8115 28.9112 38.7573 28.8635C40.443 26.9938 42.3129 24.9824 43.3148 24.1094C45.0539 22.5943 44.9931 21.6125 44.9189 20.4127C44.9032 20.1589 44.8869 19.8953 44.8869 19.6148C44.8869 18.0088 43.4732 17.2403 41.8468 16.5561C40.2204 15.8718 38.0876 17.5126 38.0876 17.5126C38.0876 17.5126 35.6312 20.0391 33.0927 22.2726C33.0244 22.1424 32.951 22.03 32.8723 21.9411Z" fill="#B01A3D"/>
<g filter="url(#filter1_di)">
<path fill-rule="evenodd" clip-rule="evenodd" d="M32.2412 24.8683C30.7092 23.4298 27.6361 20.2704 27.6361 20.2704C27.6361 20.2704 25.8906 18.6799 24.9397 19.1113C23.9888 19.5428 23.9231 19.8411 23.9231 20.8539C23.9231 21.835 25.7994 23.5963 27.0366 24.7578C27.0766 24.7953 27.1159 24.8321 27.1544 24.8683C27.8248 25.4983 29.2721 27.0425 30.4521 28.3194C30.3151 28.4657 30.1726 28.6118 30.0221 28.7582C29.8411 28.9344 29.5494 29.1898 29.1894 29.5052C27.0274 31.399 22.3978 35.4543 24.4246 37.4808C26.3432 39.3992 31.1436 33.4554 32.885 31.1467C34.6263 33.4554 39.4268 39.3992 41.3454 37.4808C43.3721 35.4543 38.7426 31.399 36.5805 29.5052C36.2205 29.1898 35.9289 28.9344 35.7478 28.7582C35.5974 28.6118 35.4548 28.4657 35.3179 28.3194C36.4979 27.0425 37.9451 25.4983 38.6155 24.8683C38.6541 24.8321 38.6933 24.7953 38.7333 24.7578C39.9706 23.5963 41.8468 21.835 41.8468 20.8539C41.8468 19.8411 41.7811 19.5428 40.8302 19.1113C39.8793 18.6799 38.1338 20.2704 38.1338 20.2704C38.1338 20.2704 35.0608 23.4298 33.5288 24.8683C33.2969 25.0861 33.0839 25.2988 32.885 25.5073C32.6861 25.2988 32.4731 25.0861 32.2412 24.8683Z" fill="url(#paint1_linear)"/>
</g>
</g>
<defs>
<filter id="filter0_di" x="0.769226" y="5.32703" width="56.4615" height="54.1538" filterUnits="userSpaceOnUse" color-interpolation-filters="sRGB">
<feFlood flood-opacity="0" result="BackgroundImageFix"/>
<feColorMatrix in="SourceAlpha" type="matrix" values="0 0 0 0 0 0 0 0 0 0 0 0 0 0 0 0 0 0 127 0"/>
<feOffset dx="-3" dy="3"/>
<feGaussianBlur stdDeviation="2"/>
<feColorMatrix type="matrix" values="0 0 0 0 0.776493 0 0 0 0 0.187904 0 0 0 0 0.284569 0 0 0 0.414232 0"/>
<feBlend mode="normal" in2="BackgroundImageFix" result="effect1_dropShadow"/>
<feBlend mode="normal" in="SourceGraphic" in2="effect1_dropShadow" result="shape"/>
<feColorMatrix in="SourceAlpha" type="matrix" values="0 0 0 0 0 0 0 0 0 0 0 0 0 0 0 0 0 0 127 0" result="hardAlpha"/>
<feOffset dy="-2"/>
<feComposite in2="hardAlpha" operator="arithmetic" k2="-1" k3="1"/>
<feColorMatrix type="matrix" values="0 0 0 0 0.369739 0 0 0 0 0.00588658 0 0 0 0 0.131393 0 0 0 0.602497 0"/>
<feBlend mode="normal" in2="shape" result="effect2_innerShadow"/>
</filter>
<filter id="filter1_di" x="21.9231" y="18.0371" width="21.9237" height="22.8191" filterUnits="userSpaceOnUse" color-interpolation-filters="sRGB">
<feFlood flood-opacity="0" result="BackgroundImageFix"/>
<feColorMatrix in="SourceAlpha" type="matrix" values="0 0 0 0 0 0 0 0 0 0 0 0 0 0 0 0 0 0 127 0"/>
<feOffset dy="1"/>
<feGaussianBlur stdDeviation="1"/>
<feColorMatrix type="matrix" values="0 0 0 0 0.395913 0 0 0 0 0.0952994 0 0 0 0 0.215381 0 0 0 0.309216 0"/>
<feBlend mode="normal" in2="BackgroundImageFix" result="effect1_dropShadow"/>
<feBlend mode="normal" in="SourceGraphic" in2="effect1_dropShadow" result="shape"/>
<feColorMatrix in="SourceAlpha" type="matrix" values="0 0 0 0 0 0 0 0 0 0 0 0 0 0 0 0 0 0 127 0" result="hardAlpha"/>
<feOffset dy="1"/>
<feComposite in2="hardAlpha" operator="arithmetic" k2="-1" k3="1"/>
<feColorMatrix type="matrix" values="0 0 0 0 1 0 0 0 0 1 0 0 0 0 1 0 0 0 0.569378 0"/>
<feBlend mode="normal" in2="shape" result="effect2_innerShadow"/>
</filter>
<linearGradient id="paint0_linear" x1="7.76923" y1="6.32703" x2="7.76923" y2="52.4809" gradientUnits="userSpaceOnUse">
<stop stop-color="#FF476D"/>
<stop offset="0.97803" stop-color="#D01138"/>
</linearGradient>
<linearGradient id="paint1_linear" x1="24.12" y1="19.0371" x2="24.12" y2="37.4427" gradientUnits="userSpaceOnUse">
<stop stop-color="#FFD0DA"/>
<stop offset="1" stop-color="#FFB3C3"/>
</linearGradient>
</defs>
</svg>
