<svg viewBox="0 0 492 57" fill="none" xmlns="http://www.w3.org/2000/svg">
<path fill-rule="evenodd" clip-rule="evenodd" d="M38.9998 3C13.1625 4.35855 0.69397 13 0.69397 26.9893C0.694339 43.5 3.96918 51.7788 33.9998 53.9126C64.0303 56.0464 106.39 56.5764 190.027 56.9241C227.344 57.0793 275.507 56.9532 304.984 56.9241C341.574 56.888 413.552 57.4434 430.549 56.9241C467.392 55.7985 486.5 50 490.5 37.2802C493.733 27 491.676 15.6941 477.5 8.5C462.617 0.946682 415.505 3.42577 380.953 2.65389C346.402 1.88201 306.135 0.946683 296.495 0.946683C286.856 0.946683 193.169 0.504147 150.499 0.946683C107.829 1.38922 64.837 1.64145 38.9998 3Z" fill="#F79516"/>
<g filter="url(#filter0_i)">
<path fill-rule="evenodd" clip-rule="evenodd" d="M41.6339 10.0355C16.0092 11.1032 6.99992 14.5 7.00012 28.5C7.00034 43.5 11.8504 45.7966 41.6339 47.4737C71.4173 49.1508 109.727 49.667 192.677 49.9404C229.686 50.0623 277.453 49.9632 306.687 49.9404C342.976 49.912 388.053 48.8663 404.91 48.4581C441.45 47.5734 471.322 50.3399 481 39.5C487.961 31.7034 485.13 20 476 15.2632C462 8 416.298 10.1031 382.031 9.49639C347.764 8.88972 307.828 8.15459 298.268 8.15459C288.708 8.15459 195.793 7.80677 153.473 8.15459C111.154 8.5024 67.2585 8.9677 41.6339 10.0355Z" fill="url(#paint0_radial)"/>
</g>
<defs>
<filter id="filter0_i" x="7.00012" y="8" width="477.885" height="43" filterUnits="userSpaceOnUse" color-interpolation-filters="sRGB">
<feFlood flood-opacity="0" result="BackgroundImageFix"/>
<feBlend mode="normal" in="SourceGraphic" in2="BackgroundImageFix" result="shape"/>
<feColorMatrix in="SourceAlpha" type="matrix" values="0 0 0 0 0 0 0 0 0 0 0 0 0 0 0 0 0 0 127 0" result="hardAlpha"/>
<feOffset dy="1"/>
<feGaussianBlur stdDeviation="2.5"/>
<feComposite in2="hardAlpha" operator="arithmetic" k2="-1" k3="1"/>
<feColorMatrix type="matrix" values="0 0 0 0 0.475845 0 0 0 0 0.217092 0 0 0 0 0.0519329 0 0 0 0.710541 0"/>
<feBlend mode="normal" in2="shape" result="effect1_innerShadow"/>
</filter>
<radialGradient id="paint0_radial" cx="0" cy="0" r="1" gradientUnits="userSpaceOnUse" gradientTransform="translate(228.438 29.7094) rotate(90) scale(26.4236 1037.36)">
<stop stop-color="#EF861A"/>
<stop offset="1" stop-color="#CF6613"/>
</radialGradient>
</defs>
</svg>
