<svg width="213" height="50" viewBox="0 0 213 50" fill="none" xmlns="http://www.w3.org/2000/svg">
    <path fill-rule="evenodd" clip-rule="evenodd" d="M19.6735 3.11951C8.40026 4.32712 2.98522 9.78584 1.05232 23.3239C-0.880586 36.8619 6.57064 45.3589 19.6735 47.2557C32.7763 49.1524 47.1691 49.6234 83.6617 49.9325C99.9435 50.0705 120.958 49.9584 133.819 49.9325C149.784 49.9004 181.189 47.7173 188.605 47.2557C204.681 46.2551 208.307 41.2888 211.369 32.4713C214.432 23.6537 212.278 16.6134 206.093 10.2186C199.908 3.82386 182.041 2.37846 166.966 1.69234C151.891 1.00623 134.321 0.174829 130.115 0.174829C125.91 0.174829 85.0326 -0.218536 66.4148 0.174829C47.797 0.568194 30.9467 1.91191 19.6735 3.11951Z" fill="#F79516"/>
        <g filter="url(#filter0_i)">
        <path fill-rule="evenodd" clip-rule="evenodd" d="M24.7115 7.84162C14.2718 8.8077 9.83901 13.1696 8.04903 24C6.25905 34.8304 12.5775 40.1969 24.7115 41.7143C36.8455 43.2317 52.4531 43.6987 86.2474 43.946C101.325 44.0564 120.786 43.9667 132.696 43.946C147.481 43.9204 165.845 42.9743 172.713 42.605C187.6 41.8045 201.362 40.5624 204.198 33.5084C207.034 26.4543 206.108 17.6872 200.381 12.5714C194.653 7.45563 177.352 7.90277 163.392 7.35388C149.431 6.80498 133.161 6.13986 129.266 6.13986C125.371 6.13986 87.5169 5.82517 70.2757 6.13986C53.0346 6.45456 35.1511 6.87554 24.7115 7.84162Z" fill="url(#paint0_radial)"/>
    </g>
    <defs>
        <filter id="filter0_i" x="7.74951" y="6" width="198" height="39" filterUnits="userSpaceOnUse" color-interpolation-filters="sRGB">
            <feFlood flood-opacity="0" result="BackgroundImageFix"/>
            <feBlend mode="normal" in="SourceGraphic" in2="BackgroundImageFix" result="shape"/>
            <feColorMatrix in="SourceAlpha" type="matrix" values="0 0 0 0 0 0 0 0 0 0 0 0 0 0 0 0 0 0 127 0" result="hardAlpha"/>
            <feOffset dy="1"/>
            <feGaussianBlur stdDeviation="2.5"/>
            <feComposite in2="hardAlpha" operator="arithmetic" k2="-1" k3="1"/>
            <feColorMatrix type="matrix" values="0 0 0 0 0.475845 0 0 0 0 0.217092 0 0 0 0 0.0519329 0 0 0 0.710541 0"/>
            <feBlend mode="normal" in2="shape" result="effect1_innerShadow"/>
        </filter>
            <radialGradient id="paint0_radial" cx="0" cy="0" r="1" gradientUnits="userSpaceOnUse" gradientTransform="translate(100.817 25.6419) rotate(90) scale(23.907 422.626)">
            <stop stop-color="#EF861A"/>
            <stop offset="1" stop-color="#CF6613"/>
        </radialGradient>
    </defs>
</svg>
