<svg preserveAspectRatio="none" viewBox="0 0 587 593" fill="none" xmlns="http://www.w3.org/2000/svg">
    <path fill-rule="evenodd" clip-rule="evenodd" d="M3.90549 44.3627C6.8345 -6.30395 45.7761 9.37284 130.294 3.76101C214.812 -1.85082 259.892 0.446016 303.253 0.564742C324.401 0.622649 387.16 5.49821 406.883 6.18406C426.606 6.86991 456.081 7.94787 494.262 7.01487C507.776 6.68466 542.2 4.01631 564.318 2.21671C574.944 1.35211 584.027 9.80715 583.868 20.4674C583.423 50.3314 582.645 105.38 582.645 125.52C582.645 291.408 585.443 462.772 585.443 497.327C585.443 514.681 587.774 544.026 584.171 559.654C576.804 591.617 551.211 588.184 468.034 591.617C384.858 595.05 344.807 590.924 294.511 591.617C244.895 592.3 199.512 592.208 163.268 591.617C53.7921 589.831 39.1135 590.632 18.1543 583.479C-2.80494 576.325 0.433378 528.032 0.433378 528.032C0.433378 528.032 4.05264 347.823 3.90549 285.3C3.75834 222.778 4.29732 287.979 3.90549 199.326C3.51366 110.674 2.76631 64.0686 3.90549 44.3627Z" fill="#FFE667"/>
    <path fill-rule="evenodd" clip-rule="evenodd" d="M12.751 40.1294C12.751 15.1274 41.853 15.1274 48.8505 14.1668C72.6429 10.9006 101.331 16.4148 135.57 14.1668C216.913 8.82615 259.123 12.2777 300.854 12.3907C342.586 12.5036 380.982 13.2409 401.921 14.1668C437.845 15.7552 517.209 13.9017 553.194 12.9217C563.3 12.6465 571.637 20.666 571.721 30.7753C572.254 95.0533 574.162 309.096 576.383 369.524C578.671 431.776 575.644 550.724 574.095 553.964C569.014 564.593 564.613 571.304 541.497 577.182C518.381 583.06 540.074 578.648 461.271 582.447C382.469 586.246 341.838 581.788 293.432 582.447C245.679 583.097 199.636 583.01 164.753 582.447C90.6523 581.251 45.5974 573.414 25.3845 568.869C17.7731 567.157 12.751 560.417 12.751 552.616C12.751 473.806 12.751 62.7284 12.751 40.1294Z" fill="#F8AD1F"/>
    <path opacity="0.526507" fill-rule="evenodd" clip-rule="evenodd" d="M22.1949 548.861C19.7149 541.365 16.1544 566.206 32.3942 569.499C48.6341 572.792 66.1589 569.499 66.1589 569.499C66.1589 569.499 24.6749 556.357 22.1949 548.861Z" fill="#C3630B"/>
    <path opacity="0.526507" fill-rule="evenodd" clip-rule="evenodd" d="M557.376 553.728C561.032 546.233 566.28 571.074 542.344 574.367C526.386 576.562 509.798 576.562 492.578 574.367C533.34 565.605 554.94 558.726 557.376 553.728Z" fill="#C3630B"/>
    <g filter="url(#filter0_di)">
        <path fill-rule="evenodd" clip-rule="evenodd" d="M17.9337 41.843C17.8737 30.7353 27.814 21.9252 38.9018 22.5923C57.8783 23.7341 89.8511 24.4286 135.57 21.4263C215.401 16.1839 251.314 20.5286 292.269 20.6395C312.245 20.6936 399.82 22.493 420.37 23.4018C454.336 24.904 516.929 23.1458 547.992 22.0975C558.136 21.7551 566.563 29.5334 566.659 39.6826C567.533 131.692 570.896 540.726 561.799 554.273C551.546 569.541 541.497 575.612 474.829 576.259C408.16 576.905 339.775 575.612 292.269 576.259C245.404 576.897 203.15 576.811 168.916 576.259C97.1774 575.101 53.6589 568.364 33.7326 564.346C25.9527 562.778 20.7086 555.9 20.6658 547.963L17.9337 41.843Z" fill="#FCC627"/>
    </g>
    <path opacity="0.526507" fill-rule="evenodd" clip-rule="evenodd" d="M9.55268 567.7C7.07269 560.204 3.95831 579.084 20.1982 582.377C36.438 585.67 35.1983 582.377 35.1983 582.377C35.1983 582.377 12.0327 575.196 9.55268 567.7Z" fill="#E9B627"/>
    <path opacity="0.526507" fill-rule="evenodd" clip-rule="evenodd" d="M577.639 563.806C580.119 556.31 583.233 575.19 566.993 578.483C550.753 581.776 551.993 578.483 551.993 578.483C551.993 578.483 575.159 571.302 577.639 563.806Z" fill="#E9B627"/>
    <defs>
        <filter id="filter0_di" x="7.93347" y="10.8443" width="570.057" height="577.861" filterUnits="userSpaceOnUse" color-interpolation-filters="sRGB">
            <feFlood flood-opacity="0" result="BackgroundImageFix"/>
            <feColorMatrix in="SourceAlpha" type="matrix" values="0 0 0 0 0 0 0 0 0 0 0 0 0 0 0 0 0 0 127 0"/>
            <feOffset dy="2"/>
            <feGaussianBlur stdDeviation="5"/>
            <feColorMatrix type="matrix" values="0 0 0 0 0.774102 0 0 0 0 0.2636 0 0 0 0 0 0 0 0 0.737375 0"/>
            <feBlend mode="normal" in2="BackgroundImageFix" result="effect1_dropShadow"/>
            <feBlend mode="normal" in="SourceGraphic" in2="effect1_dropShadow" result="shape"/>
            <feColorMatrix in="SourceAlpha" type="matrix" values="0 0 0 0 0 0 0 0 0 0 0 0 0 0 0 0 0 0 127 0" result="hardAlpha"/>
            <feOffset dy="4"/>
            <feComposite in2="hardAlpha" operator="arithmetic" k2="-1" k3="1"/>
            <feColorMatrix type="matrix" values="0 0 0 0 1 0 0 0 0 1 0 0 0 0 1 0 0 0 0.302649 0"/>
            <feBlend mode="normal" in2="shape" result="effect2_innerShadow"/>
        </filter>
    </defs>
</svg>
