<svg preserveAspectRatio="none" id="Layer_1" data-name="Layer 1" xmlns="http://www.w3.org/2000/svg" viewBox="0 0 587 593">
  <path d="M3.91,44.36C6.83-6.3,45.78,9.37,130.29,3.76s129.6-3.31,173-3.2C324.4.62,387.16,5.5,406.88,6.18s49.2,1.76,87.38.83c13.51-.33,47.94-3,70.06-4.8a18.07,18.07,0,0,1,19.55,18.25c-.45,29.86-1.22,84.91-1.22,105.05,0,165.89,2.8,337.25,2.8,371.81,0,17.35,2.33,46.7-1.27,62.33-7.37,32-33,28.53-116.14,32s-123.23-.69-173.52,0c-49.62.68-95,.59-131.24,0-109.48-1.79-124.15-1-145.11-8.14S.43,528,.43,528,4.05,347.82,3.91,285.3s.39,2.68,0-86S2.77,64.07,3.91,44.36Z" style="fill: #ffe667"/>
  <path d="M12.75,40.13c0-25,29.1-25,36.1-26,23.79-3.27,52.48,2.25,86.72,0,81.34-5.34,123.55-1.89,165.28-1.78s80.13.85,101.07,1.78c35.92,1.59,115.29-.27,151.27-1.25a18,18,0,0,1,18.53,17.85c.53,64.28,2.44,278.32,4.66,338.75,2.29,62.25-.74,181.2-2.29,184.44-5.08,10.63-9.48,17.34-32.6,23.22s-1.42,1.47-80.23,5.27-119.43-.66-167.84,0c-47.75.65-93.8.56-128.68,0-74.1-1.2-119.16-9-139.37-13.58a16.32,16.32,0,0,1-12.63-16.25Z" style="fill: #f8ad1f"/>
  <path d="M22.19,548.86c-2.48-7.5-6,17.34,10.2,20.64s33.76,0,33.76,0S24.67,556.36,22.19,548.86Z" style="fill: #c3630b;opacity: 0.5265070199966431;isolation: isolate"/>
  <path d="M557.38,553.73c3.66-7.5,8.9,17.35-15,20.64a188.81,188.81,0,0,1-49.77,0Q553.72,561.22,557.38,553.73Z" style="fill: #c3630b;opacity: 0.5265070199966431;isolation: isolate"/>
  <path d="M17.93,41.84c-.06-11.11,9.88-19.92,21-19.25,19,1.14,50.95,1.84,96.67-1.17,79.83-5.24,115.74-.9,156.7-.79,20,.05,107.55,1.85,128.1,2.76,34,1.5,96.56-.26,127.62-1.3a17.82,17.82,0,0,1,18.67,17.59c.87,92,4.24,501-4.86,514.59-10.25,15.27-20.3,21.34-87,22s-135.05-.65-182.56,0c-46.87.64-89.12.55-123.35,0-71.74-1.16-115.26-7.89-135.18-11.91A16.49,16.49,0,0,1,20.67,548Z" style="fill: #fcc627"/>
  <path d="M9.55,567.7C7.07,560.2,4,579.08,20.2,582.38s15,0,15,0S12,575.2,9.55,567.7Z" style="fill: #e9b627;opacity: 0.5265070199966431;isolation: isolate"/>
  <path d="M577.64,563.81c2.48-7.5,5.59,11.38-10.65,14.68s-15,0-15,0S575.16,571.3,577.64,563.81Z" style="fill: #e9b627;opacity: 0.5265070199966431;isolation: isolate"/>
  <g style="opacity: 0.4062960147857666">
    <path d="M503.53,403.56c1.21,5.83,4.69,6.55,7.5,4.5,3-1.92,5.38-6.62,9.33-8.66,3.72-2.55,8.4-2.06,11.51-3.81,3.07-1.47,4.57-5.16,1.14-9.67a30.32,30.32,0,0,0-12.11-9.09c-4-1.55-7.1-1.49-10.49.38-3.27,2.12-5.1,5-6.32,9.68A40.38,40.38,0,0,0,503.53,403.56Z" style="fill: #df3d00;opacity: 0.538457989692688;isolation: isolate"/>
    <path d="M488.66,390.52c4,3.88,9,4.15,11.2.59s.64-9.59-3.38-13.47-9-4.15-11.2-.59S484.63,386.64,488.66,390.52Z" style="fill: #df3d00;opacity: 0.538457989692688;isolation: isolate"/>
    <path d="M490.57,369.88c3.6,5.28,8.8,7.38,11.61,4.69s2.19-9.14-1.41-14.42-8.8-7.38-11.61-4.69S487,364.6,490.57,369.88Z" style="fill: #df3d00;opacity: 0.538457989692688;isolation: isolate"/>
    <path d="M504.42,358.54c1.37,6.5,5.28,10.93,8.73,9.9s5.14-7.13,3.77-13.63-5.27-10.93-8.73-9.9S503,352,504.42,358.54Z" style="fill: #df3d00;opacity: 0.538457989692688;isolation: isolate"/>
    <path d="M520.54,363.89c.45,6.9,3.57,12.2,7,11.83s5.78-6.26,5.33-13.16-3.57-12.2-7-11.83S520.09,357,520.54,363.89Z" style="fill: #df3d00;opacity: 0.538457989692688;isolation: isolate"/>
    <path d="M264.26,224.26c2.87,5.06,6.41,4.4,8.5,1.38,2.34-3,3.22-8.35,6.41-11.8,2.82-3.85,7.45-5.19,9.92-8,2.52-2.57,2.87-6.65-1.73-9.6a27.82,27.82,0,0,0-14.26-4c-4.31.08-7.24,1.33-9.95,4.4-2.52,3.27-3.43,6.7-3.23,11.61A39,39,0,0,0,264.26,224.26Z" style="fill: #df3d00;opacity: 0.538457989692688;isolation: isolate"/>
    <path d="M246.85,217.73c5.29,1.8,10.56.12,11.76-3.76s-2.1-8.48-7.39-10.29-10.55-.12-11.76,3.76S241.56,215.93,246.85,217.73Z" style="fill: #df3d00;opacity: 0.538457989692688;isolation: isolate"/>
    <path d="M243.39,197.85c5.05,3.68,10.75,3.62,12.72-.14s-.52-9.8-5.57-13.48-10.75-3.62-12.72.14S238.34,194.17,243.39,197.85Z" style="fill: #df3d00;opacity: 0.538457989692688;isolation: isolate"/>
    <path d="M251.07,181.7c3.3,5.77,8.54,8.49,11.7,6.08s3-9-.27-14.8-8.54-8.49-11.7-6.08S247.77,175.93,251.07,181.7Z" style="fill: #df3d00;opacity: 0.538457989692688;isolation: isolate"/>
    <path d="M267.53,180.43c2.48,6,7.33,9.5,10.82,7.8s4.31-8,1.82-14-7.33-9.5-10.81-7.8S265,174.42,267.53,180.43Z" style="fill: #df3d00;opacity: 0.538457989692688;isolation: isolate"/>
    <path d="M435.56,320.8c4.48,3,7.29.52,7.91-3.24.84-3.86-.51-9,.89-13.75.92-4.87,4.4-8.47,5.41-12.27,1.16-3.58-.14-7.36-5.29-7.55a26.92,26.92,0,0,0-13.92,4,14.39,14.39,0,0,0-6.88,9.08c-.89,4.2-.32,7.69,1.79,11.91A33.17,33.17,0,0,0,435.56,320.8Z" style="fill: #df3d00;opacity: 0.538457989692688;isolation: isolate"/>
    <path d="M417.7,323.1c5.39-1,9.25-5.17,8.62-9.33s-5.51-6.73-10.9-5.74-9.25,5.17-8.62,9.33S412.31,324.09,417.7,323.1Z" style="fill: #df3d00;opacity: 0.538457989692688;isolation: isolate"/>
    <path d="M405.71,307.77c6,.46,11.07-2.34,11.36-6.26s-4.35-7.47-10.34-7.94-11.07,2.34-11.36,6.26S399.72,307.31,405.71,307.77Z" style="fill: #df3d00;opacity: 0.538457989692688;isolation: isolate"/>
    <path d="M407.11,290c5.12,3.48,10.72,3.09,12.52-.87s-.9-10-6-13.45-10.72-3.09-12.52.87S402,286.48,407.11,290Z" style="fill: #df3d00;opacity: 0.538457989692688;isolation: isolate"/>
    <path d="M421.48,280.41c4.85,4.11,10.75,4.78,13.17,1.49s.45-9.29-4.41-13.4-10.75-4.78-13.17-1.49S416.63,276.3,421.48,280.41Z" style="fill: #df3d00;opacity: 0.538457989692688;isolation: isolate"/>
    <path d="M311.41,314.22c2.38,5.44,5.91,5.18,8.22,2.36,2.55-2.75,3.88-8.06,7.3-11.18,3.09-3.57,7.75-4.39,10.42-7,2.69-2.31,3.38-6.39-.88-9.9a27.63,27.63,0,0,0-13.66-5.62c-4.23-.41-7.22.51-10.14,3.31-2.75,3-3.93,6.37-4.16,11.35A41.28,41.28,0,0,0,311.41,314.22Z" style="fill: #df3d00;opacity: 0.538457989692688;isolation: isolate"/>
    <path d="M294.38,305.35c4.91,2.45,10.12,1.26,11.63-2.64s-1.25-9-6.16-11.5-10.12-1.26-11.63,2.64S289.47,302.91,294.38,305.35Z" style="fill: #df3d00;opacity: 0.538457989692688;isolation: isolate"/>
    <path d="M292.33,285.29c4.88,4.06,10.76,4.64,13.12,1.29s.31-9.36-4.57-13.42-10.76-4.64-13.12-1.29S287.44,281.23,292.33,285.29Z" style="fill: #df3d00;opacity: 0.538457989692688;isolation: isolate"/>
    <path d="M302.14,270.28c2.93,5.93,8.14,9.14,11.65,7.16s4-8.38,1.05-14.31S306.7,254,303.19,256,299.22,264.35,302.14,270.28Z" style="fill: #df3d00;opacity: 0.538457989692688;isolation: isolate"/>
    <path d="M318.65,271c1.87,6.44,6.25,10.55,9.78,9.19s4.87-7.68,3-14.12-6.26-10.55-9.79-9.19S316.77,264.53,318.65,271Z" style="fill: #df3d00;opacity: 0.538457989692688;isolation: isolate"/>
    <path d="M85.9,188.47c3.78,4.24,7.14,2.72,8.62-.76,1.73-3.5,1.57-9,4-13.13,2-4.46,6.33-6.92,8.21-10.32,2-3.14,1.55-7.22-3.54-9A27.5,27.5,0,0,0,88.47,155a13.26,13.26,0,0,0-8.94,6.77c-1.85,3.83-2.09,7.4-1,12.16A36.83,36.83,0,0,0,85.9,188.47Z" style="fill: #df3d00;opacity: 0.538457989692688;isolation: isolate"/>
    <path d="M67.4,185c5.41.54,10.1-2.19,10.46-6.11s-3.72-7.52-9.14-8.06-10.1,2.19-10.46,6.11S62,184.48,67.4,185Z" style="fill: #df3d00;opacity: 0.538457989692688;isolation: isolate"/>
    <path d="M60.15,168.55c5.58,2.23,11.09.77,12.32-3.27s-2.3-9.11-7.87-11.33-11.09-.77-12.32,3.27S54.57,166.33,60.15,168.55Z" style="fill: #df3d00;opacity: 0.538457989692688;isolation: isolate"/>
    <path d="M65.8,150.71c4.39,4.68,10.11,6,12.79,2.94s1.29-9.34-3.1-14-10.11-6-12.79-2.94S61.41,146,65.8,150.71Z" style="fill: #df3d00;opacity: 0.538457989692688;isolation: isolate"/>
    <path d="M81.85,145.57c3.49,5.36,8.71,7.65,11.66,5.13s2.52-8.91-1-14.27-8.71-7.65-11.66-5.13S78.36,140.21,81.85,145.57Z" style="fill: #df3d00;opacity: 0.538457989692688;isolation: isolate"/>
    <path d="M184.74,174.72c4,3.77,7.07,1.79,8.14-1.91,1.3-3.75.63-9.24,2.58-13.76,1.51-4.76,5.36-7.81,6.82-11.48,1.58-3.42.77-7.47-4.25-8.56a25.2,25.2,0,0,0-14.12,1.63,13.62,13.62,0,0,0-7.86,8c-1.39,4.1-1.27,7.73.27,12.37A36.25,36.25,0,0,0,184.74,174.72Z" style="fill: #df3d00;opacity: 0.538457989692688;isolation: isolate"/>
    <path d="M166.44,174.36c5.43-.11,9.76-3.4,9.69-7.34s-4.53-7.06-10-6.95-9.76,3.4-9.69,7.34S161,174.47,166.44,174.36Z" style="fill: #df3d00;opacity: 0.538457989692688;isolation: isolate"/>
    <path d="M156.07,157.23c5.65,1.43,10.89-.68,11.69-4.71s-3.14-8.46-8.79-9.89-10.89.68-11.69,4.71S150.41,155.81,156.07,157.23Z" style="fill: #df3d00;opacity: 0.538457989692688;isolation: isolate"/>
    <path d="M160,138.73c4.89,4.06,10.76,4.63,13.12,1.28s.31-9.36-4.57-13.42-10.76-4.63-13.11-1.28S155.08,134.67,160,138.73Z" style="fill: #df3d00;opacity: 0.538457989692688;isolation: isolate"/>
    <path d="M175.89,133.38c4,5.09,9.49,6.75,12.19,3.72s1.62-9.61-2.42-14.7-9.49-6.75-12.19-3.72S171.86,128.29,175.89,133.38Z" style="fill: #df3d00;opacity: 0.538457989692688;isolation: isolate"/>
  </g>
</svg>
