<svg width="483" height="293" viewBox="0 0 483 293" fill="none" xmlns="http://www.w3.org/2000/svg">
<g opacity="0.406296">
<path opacity="0.538458" fill-rule="evenodd" clip-rule="evenodd" d="M451.5 287.184C452.712 293.015 456.189 293.737 458.997 291.685C462.021 289.76 464.377 285.062 468.324 283.026C472.043 280.476 476.724 280.963 479.829 279.219C482.901 277.753 484.395 274.057 480.969 269.55C477.544 265.156 472.734 262.001 468.862 260.459C464.842 258.909 461.76 258.972 458.37 260.839C455.095 262.96 453.273 265.832 452.051 270.519C450.909 275.061 450.367 281.42 451.5 287.184Z" fill="#DF3D00"/>
<path opacity="0.538458" fill-rule="evenodd" clip-rule="evenodd" d="M436.625 274.142C440.651 278.024 445.664 278.289 447.823 274.733C449.982 271.178 448.468 265.147 444.442 261.265C440.416 257.382 435.403 257.118 433.244 260.673C431.085 264.229 432.599 270.259 436.625 274.142Z" fill="#DF3D00"/>
<path opacity="0.538458" fill-rule="evenodd" clip-rule="evenodd" d="M438.532 253.5C442.128 258.778 447.328 260.88 450.146 258.194C452.965 255.509 452.336 249.054 448.74 243.776C445.143 238.498 439.944 236.396 437.126 239.082C434.306 241.767 434.937 248.222 438.532 253.5Z" fill="#DF3D00"/>
<path opacity="0.538458" fill-rule="evenodd" clip-rule="evenodd" d="M452.385 242.16C453.755 248.66 457.662 253.094 461.111 252.064C464.56 251.036 466.246 244.932 464.876 238.433C463.507 231.935 459.601 227.501 456.151 228.529C452.701 229.559 451.015 235.661 452.385 242.16Z" fill="#DF3D00"/>
<path opacity="0.538458" fill-rule="evenodd" clip-rule="evenodd" d="M468.51 247.514C468.962 254.414 472.083 259.71 475.479 259.344C478.875 258.977 481.262 253.086 480.809 246.186C480.357 239.287 477.236 233.99 473.84 234.357C470.443 234.723 468.057 240.614 468.51 247.514Z" fill="#DF3D00"/>
<path opacity="0.538458" fill-rule="evenodd" clip-rule="evenodd" d="M212.224 107.879C215.089 112.938 218.632 112.283 220.725 109.256C223.062 106.268 223.948 100.907 227.137 97.456C229.955 93.607 234.585 92.2655 237.052 89.416C239.569 86.8432 239.921 82.7644 235.321 79.8119C230.756 76.9669 225.223 75.8295 221.061 75.859C216.754 75.9389 213.818 77.1867 211.114 80.2615C208.594 83.534 207.686 86.9573 207.883 91.8701C208.115 96.6156 209.454 102.851 212.224 107.879Z" fill="#DF3D00"/>
<path opacity="0.538458" fill-rule="evenodd" clip-rule="evenodd" d="M194.814 101.35C200.103 103.152 205.369 101.469 206.575 97.5905C207.781 93.712 204.473 89.1067 199.184 87.3054C193.895 85.5033 188.63 87.1866 187.423 91.0651C186.216 94.9437 189.526 99.5481 194.814 101.35Z" fill="#DF3D00"/>
<path opacity="0.538458" fill-rule="evenodd" clip-rule="evenodd" d="M191.356 81.4749C196.407 85.1597 202.104 85.0991 204.078 81.3394C206.053 77.5797 203.559 71.5434 198.506 67.8585C193.454 64.1736 187.758 64.2342 185.784 67.9939C183.809 71.7536 186.304 77.79 191.356 81.4749Z" fill="#DF3D00"/>
<path opacity="0.538458" fill-rule="evenodd" clip-rule="evenodd" d="M199.04 65.3232C202.344 71.091 207.58 73.815 210.737 71.4071C213.893 68.9991 213.774 62.372 210.47 56.6042C207.166 50.8364 201.929 48.1124 198.774 50.5194C195.617 52.9273 195.737 59.5554 199.04 65.3232Z" fill="#DF3D00"/>
<path opacity="0.538458" fill-rule="evenodd" clip-rule="evenodd" d="M215.499 64.0532C217.982 70.0658 222.824 73.5571 226.314 71.8507C229.804 70.1443 230.62 63.8864 228.137 57.8738C225.654 51.8612 220.811 48.3698 217.322 50.0763C213.832 51.7827 213.016 58.0405 215.499 64.0532Z" fill="#DF3D00"/>
<path opacity="0.538458" fill-rule="evenodd" clip-rule="evenodd" d="M383.524 204.425C388.004 207.38 390.815 204.948 391.433 201.186C392.276 197.331 390.926 192.147 392.326 187.438C393.248 182.573 396.728 178.967 397.74 175.167C398.904 171.583 397.598 167.806 392.447 167.615C387.367 167.501 382.125 169.396 378.531 171.602C374.832 173.927 372.782 176.562 371.653 180.686C370.763 184.887 371.329 188.377 373.441 192.6C375.516 196.657 379.139 201.448 383.524 204.425Z" fill="#DF3D00"/>
<path opacity="0.538458" fill-rule="evenodd" clip-rule="evenodd" d="M365.667 206.72C371.055 205.73 374.913 201.554 374.283 197.394C373.653 193.234 368.774 190.664 363.386 191.654C357.997 192.644 354.139 196.82 354.769 200.981C355.4 205.14 360.278 207.71 365.667 206.72Z" fill="#DF3D00"/>
<path opacity="0.538458" fill-rule="evenodd" clip-rule="evenodd" d="M353.676 191.392C359.665 191.854 364.749 189.05 365.031 185.128C365.311 181.208 360.684 177.654 354.694 177.193C348.704 176.731 343.62 179.536 343.339 183.457C343.058 187.378 347.686 190.931 353.676 191.392Z" fill="#DF3D00"/>
<path opacity="0.538458" fill-rule="evenodd" clip-rule="evenodd" d="M355.073 173.579C360.192 177.054 365.796 176.666 367.59 172.711C369.384 168.756 366.688 162.734 361.57 159.258C356.451 155.783 350.847 156.171 349.052 160.126C347.259 164.081 349.954 170.104 355.073 173.579Z" fill="#DF3D00"/>
<path opacity="0.538458" fill-rule="evenodd" clip-rule="evenodd" d="M369.45 164.031C374.305 168.143 380.203 168.81 382.623 165.522C385.044 162.234 383.07 156.236 378.217 152.124C373.362 148.013 367.464 147.345 365.043 150.633C362.623 153.921 364.596 159.92 369.45 164.031Z" fill="#DF3D00"/>
<path opacity="0.538458" fill-rule="evenodd" clip-rule="evenodd" d="M259.377 197.837C261.757 203.275 265.29 203.019 267.602 200.201C270.15 197.451 271.477 192.139 274.901 189.019C277.995 185.454 282.653 184.629 285.317 182.035C288.005 179.726 288.7 175.646 284.438 172.138C280.2 168.742 274.868 166.959 270.781 166.513C266.549 166.099 263.562 167.023 260.646 169.819C257.894 172.835 256.711 176.189 256.485 181.173C256.309 185.992 257.088 192.442 259.377 197.837Z" fill="#DF3D00"/>
<path opacity="0.538458" fill-rule="evenodd" clip-rule="evenodd" d="M242.349 188.976C247.261 191.422 252.467 190.241 253.979 186.337C255.49 182.434 252.734 177.288 247.822 174.842C242.91 172.396 237.703 173.578 236.193 177.481C234.681 181.383 237.437 186.531 242.349 188.976Z" fill="#DF3D00"/>
<path opacity="0.538458" fill-rule="evenodd" clip-rule="evenodd" d="M240.295 168.911C245.178 172.971 251.051 173.547 253.412 170.197C255.772 166.846 253.726 160.838 248.842 156.777C243.959 152.716 238.086 152.141 235.725 155.491C233.365 158.842 235.41 164.85 240.295 168.911Z" fill="#DF3D00"/>
<path opacity="0.538458" fill-rule="evenodd" clip-rule="evenodd" d="M250.11 153.906C253.037 159.837 258.254 163.044 261.762 161.07C265.27 159.096 265.739 152.688 262.812 146.758C259.885 140.828 254.667 137.62 251.159 139.595C247.652 141.569 247.182 147.976 250.11 153.906Z" fill="#DF3D00"/>
<path opacity="0.538458" fill-rule="evenodd" clip-rule="evenodd" d="M266.614 154.586C268.487 161.023 272.869 165.137 276.399 163.775C279.93 162.413 281.273 156.09 279.4 149.653C277.527 143.216 273.145 139.102 269.615 140.465C266.084 141.826 264.74 148.149 266.614 154.586Z" fill="#DF3D00"/>
<path opacity="0.538458" fill-rule="evenodd" clip-rule="evenodd" d="M33.8647 72.091C37.649 76.3299 41.0076 74.8097 42.4858 71.33C44.2121 67.8271 44.0572 62.3638 46.5336 58.1976C48.5697 53.7339 52.8648 51.273 54.7452 47.8743C56.7261 44.7336 56.2939 40.6559 51.2074 38.9091C46.1752 37.259 40.5178 37.5188 36.4319 38.5802C32.2138 39.7263 29.5664 41.6739 27.4962 45.3518C25.6434 49.178 25.4058 52.7517 26.5394 57.5085C27.6738 62.0929 30.181 67.8603 33.8647 72.091Z" fill="#DF3D00"/>
<path opacity="0.538458" fill-rule="evenodd" clip-rule="evenodd" d="M15.3656 68.6409C20.7786 69.1803 25.4635 66.4463 25.83 62.535C26.1973 58.6246 22.1057 55.0171 16.692 54.4777C11.279 53.9383 6.59408 56.6723 6.22761 60.5836C5.86032 64.494 9.95187 68.1015 15.3656 68.6409Z" fill="#DF3D00"/>
<path opacity="0.538458" fill-rule="evenodd" clip-rule="evenodd" d="M8.11607 52.1765C13.6915 54.4041 19.2087 52.9419 20.438 48.9112C21.6665 44.8795 18.1423 39.8054 12.5661 37.5779C6.99059 35.3504 1.47343 36.8125 0.244911 40.8433C-0.985209 44.8749 2.5398 49.949 8.11607 52.1765Z" fill="#DF3D00"/>
<path opacity="0.538458" fill-rule="evenodd" clip-rule="evenodd" d="M13.7666 34.3312C18.1537 39.0132 23.8807 40.3281 26.5574 37.2681C29.2348 34.2082 27.8486 27.9324 23.4616 23.2504C19.0745 18.5685 13.3475 17.2535 10.6708 20.3135C7.99338 23.3735 9.37955 29.6492 13.7666 34.3312Z" fill="#DF3D00"/>
<path opacity="0.538458" fill-rule="evenodd" clip-rule="evenodd" d="M29.8141 29.1887C33.3006 34.5457 38.5208 36.8432 41.4733 34.3197C44.4258 31.7971 43.9927 25.4088 40.5062 20.0518C37.0197 14.6948 31.7995 12.3972 28.8462 14.9208C25.8938 17.4434 26.3276 23.8317 29.8141 29.1887Z" fill="#DF3D00"/>
<path opacity="0.538458" fill-rule="evenodd" clip-rule="evenodd" d="M132.705 58.342C136.725 62.1073 139.779 60.1313 140.849 56.4304C142.153 52.6755 141.475 47.1947 143.429 42.6712C144.935 37.9068 148.79 34.8587 150.251 31.1868C151.835 27.7624 151.024 23.7133 146.005 22.631C141.048 21.6374 135.681 22.6496 131.889 24.2605C127.98 25.9751 125.646 28.2873 124.03 32.2654C122.637 36.364 122.758 39.9939 124.302 44.6323C125.83 49.0979 128.782 54.5712 132.705 58.342Z" fill="#DF3D00"/>
<path opacity="0.538458" fill-rule="evenodd" clip-rule="evenodd" d="M114.403 57.9818C119.828 57.8736 124.167 54.5856 124.093 50.6381C124.021 46.6914 119.563 43.5801 114.138 43.6883C108.712 43.7965 104.374 47.0845 104.447 51.0312C104.52 54.9787 108.978 58.09 114.403 57.9818Z" fill="#DF3D00"/>
<path opacity="0.538458" fill-rule="evenodd" clip-rule="evenodd" d="M104.032 40.8553C109.687 42.2839 114.919 40.1751 115.718 36.144C116.518 32.1129 112.581 27.6873 106.927 26.2587C101.273 24.8301 96.0412 26.9398 95.2418 30.97C94.4425 35.0011 98.3781 39.4267 104.032 40.8553Z" fill="#DF3D00"/>
<path opacity="0.538458" fill-rule="evenodd" clip-rule="evenodd" d="M107.931 22.3502C112.816 26.4085 118.688 26.9815 121.047 23.6282C123.405 20.2749 121.357 14.2669 116.472 10.2077C111.587 6.14939 105.715 5.57725 103.357 8.92966C100.998 12.283 103.047 18.2918 107.931 22.3502Z" fill="#DF3D00"/>
<path opacity="0.538458" fill-rule="evenodd" clip-rule="evenodd" d="M123.859 17.0015C127.893 22.0889 133.352 23.7556 136.052 20.7238C138.751 17.692 137.67 11.1109 133.636 6.02355C129.603 0.937107 124.144 -0.729681 121.444 2.30119C118.743 5.333 119.825 11.9141 123.859 17.0015Z" fill="#DF3D00"/>
</g>
</svg>
