<svg width="262" height="170" viewBox="0 0 262 170" fill="none" xmlns="http://www.w3.org/2000/svg">
<path fill-rule="evenodd" clip-rule="evenodd" d="M0.568359 10.0695C0.568359 1.37008 14.0249 1.37008 17.2604 1.03584C28.2618 -0.100611 41.5269 1.81803 57.3587 1.03584C94.9709 -0.822428 114.489 0.378525 133.785 0.417839C153.081 0.457153 170.835 0.713692 180.517 1.03584C194.378 1.49706 222.226 1.1243 240.734 0.790129C250.77 0.60894 259.047 8.59003 259.166 18.6261C259.521 48.5272 260.3 106.528 261.186 124.682C262.244 146.343 260.845 158.804 260.128 159.931C257.779 163.629 256.844 166.253 243.524 166.328C230.204 166.404 243.631 165.497 204.147 167.809C164.664 170.121 152.735 169.612 130.353 169.842C108.272 170.068 86.9821 170.037 70.8528 169.842C44.3 169.519 25.813 167.809 14.4873 166.319C6.26105 165.238 0.568359 158.182 0.568359 149.885C0.568359 113.193 0.568359 17.0964 0.568359 10.0695Z" fill="#157A7E" fill-opacity="0.53"/>
</svg>
