<svg width="935" height="575" viewBox="0 0 935 575" fill="none" xmlns="http://www.w3.org/2000/svg">
<path fill-rule="evenodd" clip-rule="evenodd" d="M0 34.1934C0 4.78192 48.2063 4.78192 59.7972 3.65193C99.2084 -0.190247 146.729 6.29639 203.444 3.65193C338.185 -2.6306 408.105 1.42964 477.231 1.56255C546.357 1.69547 609.959 2.56278 644.643 3.65193C708.681 5.66279 856.046 2.98459 907.521 1.94413C917.542 1.74158 925.752 9.56509 925.868 19.5875C926.689 90.4342 929.892 349.422 933.631 421.681C937.421 494.912 932.407 537.04 929.842 540.852C921.426 553.355 918.076 567.23 870.358 567.486C822.64 567.741 780.354 562.48 729.296 567.486C587.852 575.301 545.119 573.583 464.936 574.358C385.836 575.123 309.566 575.02 251.785 574.358C125.918 572.916 50.6427 573.554 18.4514 574.022C8.32899 574.169 0 566.286 0 556.162C0 464.891 0 60.2755 0 34.1934Z" fill="#41A3AB"/>
</svg>
