<svg width="1328" height="192" viewBox="0 0 1328 192" fill="none" xmlns="http://www.w3.org/2000/svg">
<path fill-rule="evenodd" clip-rule="evenodd" d="M2.97884 16.4645C9.59452 -2.33961 2.97885 1.39584 296.292 1.39584C487.191 -0.686903 589.012 0.165532 686.949 0.209595C734.715 0.231086 876.469 2.04057 921.016 2.29512C965.564 2.54966 1032.14 2.94973 1118.38 2.60346C1155.59 2.45404 1263.02 1.01456 1304.67 0.442396C1314.16 0.312145 1322.04 7.55358 1322.72 17.0121C1323.49 27.844 1324.32 40.9264 1324.32 46.5849C1324.32 108.151 1326 141.004 1326 153.828C1326 160.269 1329.59 171.16 1321.45 176.96C1304.81 188.822 1250.51 184.528 1062.65 185.802C874.779 187.076 780.806 188.565 667.205 188.822C555.137 189.076 452.632 189.042 370.769 188.822C123.499 188.159 90.3447 188.457 43.0046 185.802C-4.33553 183.147 2.97875 165.224 2.97875 165.224C2.97875 165.224 3.31121 129.089 2.97884 105.885C2.64648 82.6806 3.86386 106.879 2.97884 73.9769C2.09383 41.0748 0.405793 23.778 2.97884 16.4645Z" fill="#FFE667"/>
<path fill-rule="evenodd" clip-rule="evenodd" d="M7 16.5434C7 7.43455 74.4888 7.43455 90.7161 7.08459C145.892 5.89465 212.42 7.90359 291.822 7.08459C480.459 5.13887 578.347 6.39634 675.123 6.4375C771.9 6.47867 860.943 6.74728 909.501 7.08459C1002.94 7.73369 1235.17 6.48704 1301.53 6.10584C1311.51 6.04849 1319.51 14.0869 1319.56 24.0711C1319.74 54.7679 1320.42 115.739 1323 136C1323 163 1319.5 171.364 1313 173.5C1301.22 177.372 1292.31 180.076 1225.5 180.155C1158.7 180.234 1226.04 179.285 1028.01 181.706C829.993 184.126 770.166 183.594 657.911 183.834C547.17 184.071 440.393 184.039 359.499 183.834C170.588 183.355 63.0812 179.952 24.0259 178.433C14.448 178.06 7 170.243 7 160.658C7 120.692 7 23.7597 7 16.5434Z" fill="#F8AD1F"/>
<path opacity="0.526507" fill-rule="evenodd" clip-rule="evenodd" d="M292.182 163.888C288.526 159.141 283.276 174.872 307.219 176.957C331.162 179.043 357 176.957 357 176.957C357 176.957 295.838 168.635 292.182 163.888Z" fill="#C3630B"/>
<path opacity="0.526507" fill-rule="evenodd" clip-rule="evenodd" d="M1092.32 163.888C1097.7 159.141 1105.42 174.872 1070.21 176.957C1035 179.043 997 176.957 997 176.957C997 176.957 1086.94 168.635 1092.32 163.888Z" fill="#C3630B"/>
<g filter="url(#filter0_di)">
<path fill-rule="evenodd" clip-rule="evenodd" d="M10.3253 29.8624C9.88343 19.4609 18.2642 10.8306 28.674 10.9828C64.3553 11.5048 150.312 12.3084 290.332 10.9259C480.72 9.04599 566.368 10.604 664.043 10.6437C711.682 10.6631 920.54 11.3084 969.549 11.6343C1061.78 12.2476 1242.53 11.3452 1300 11.0287C1309.99 10.9737 1318 19.0517 1318 29.0355V156.693C1318 166.553 1310.07 174.578 1300.21 174.692L1047.37 177.621C1047.37 177.621 777.34 179.608 664.043 179.84C552.274 180.068 451.502 180.038 369.858 179.84C178.482 179.375 71.3154 176.408 32.9104 175.102C23.5806 174.784 16.1655 167.329 15.7693 158.002L10.3253 29.8624Z" fill="#FCC627"/>
</g>
<path opacity="0.526507" fill-rule="evenodd" clip-rule="evenodd" d="M12.3785 161.954C9.94166 153.56 6.88146 174.702 22.8388 178.389C38.7961 182.077 37.578 178.389 37.578 178.389C37.578 178.389 14.8154 170.348 12.3785 161.954Z" fill="#E9B627"/>
<path opacity="0.526507" fill-rule="evenodd" clip-rule="evenodd" d="M1320.67 163.954C1323.11 155.56 1326.17 176.702 1310.21 180.389C1294.25 184.077 1295.47 180.389 1295.47 180.389C1295.47 180.389 1318.23 172.348 1320.67 163.954Z" fill="#E9B627"/>
<defs>
<filter id="filter0_di" x="0.308594" y="2" width="1327.69" height="190" filterUnits="userSpaceOnUse" color-interpolation-filters="sRGB">
<feFlood flood-opacity="0" result="BackgroundImageFix"/>
<feColorMatrix in="SourceAlpha" type="matrix" values="0 0 0 0 0 0 0 0 0 0 0 0 0 0 0 0 0 0 127 0"/>
<feOffset dy="2"/>
<feGaussianBlur stdDeviation="5"/>
<feColorMatrix type="matrix" values="0 0 0 0 0.774102 0 0 0 0 0.2636 0 0 0 0 0 0 0 0 0.737375 0"/>
<feBlend mode="normal" in2="BackgroundImageFix" result="effect1_dropShadow"/>
<feBlend mode="normal" in="SourceGraphic" in2="effect1_dropShadow" result="shape"/>
<feColorMatrix in="SourceAlpha" type="matrix" values="0 0 0 0 0 0 0 0 0 0 0 0 0 0 0 0 0 0 127 0" result="hardAlpha"/>
<feOffset dy="4"/>
<feComposite in2="hardAlpha" operator="arithmetic" k2="-1" k3="1"/>
<feColorMatrix type="matrix" values="0 0 0 0 1 0 0 0 0 1 0 0 0 0 1 0 0 0 0.302649 0"/>
<feBlend mode="normal" in2="shape" result="effect2_innerShadow"/>
</filter>
</defs>
</svg>
